<svg viewBox="0 786 595.28 40" xmlns="http://www.w3.org/2000/svg" xmlns:xlink="http://www.w3.org/1999/xlink" id="Camada_1" overflow="hidden"><defs></defs><g><g><path d="M293.77 805.94 293.77 808.63 292.9 808.63 292.9 802.18 294.72 802.18C295.13 802.18 295.48 802.22 295.78 802.3 296.08 802.38 296.32 802.5 296.52 802.66 296.71 802.82 296.86 803 296.95 803.22 297.04 803.44 297.09 803.69 297.09 803.96 297.09 804.19 297.05 804.4 296.98 804.6 296.91 804.8 296.8 804.98 296.67 805.13 296.53 805.29 296.37 805.42 296.17 805.54 295.97 805.65 295.75 805.74 295.5 805.79 295.61 805.86 295.71 805.95 295.79 806.06L297.67 808.62 296.9 808.62C296.74 808.62 296.62 808.56 296.55 808.44L294.88 806.14C294.83 806.07 294.77 806.02 294.72 805.98 294.66 805.95 294.57 805.93 294.45 805.93L293.79 805.93ZM293.77 805.3 294.69 805.3C294.94 805.3 295.17 805.27 295.36 805.21 295.55 805.15 295.72 805.06 295.85 804.95 295.98 804.84 296.08 804.7 296.14 804.55 296.21 804.39 296.24 804.22 296.24 804.03 296.24 803.65 296.11 803.36 295.86 803.16 295.61 802.97 295.23 802.87 294.73 802.87L293.78 802.87 293.78 805.3Z" fill="#4D4D4D"/><path d="M298.22 808.13C298.22 808.05 298.23 807.98 298.26 807.91 298.29 807.84 298.33 807.78 298.38 807.73 298.43 807.68 298.49 807.64 298.56 807.61 298.63 807.58 298.7 807.57 298.78 807.57 298.86 807.57 298.93 807.58 299 807.61 299.07 807.64 299.13 807.68 299.18 807.73 299.23 807.78 299.27 807.84 299.3 807.91 299.33 807.98 299.34 808.05 299.34 808.13 299.34 808.21 299.33 808.29 299.3 808.35 299.27 808.41 299.23 808.48 299.18 808.53 299.13 808.58 299.07 808.62 299 808.65 298.93 808.68 298.86 808.69 298.78 808.69 298.7 808.69 298.63 808.68 298.56 808.65 298.49 808.62 298.43 808.58 298.38 808.53 298.33 808.48 298.29 808.42 298.26 808.35 298.23 808.28 298.22 808.21 298.22 808.13Z" fill="#4D4D4D"/><path d="M302.97 808.63 302.97 802.18 305.03 802.18C305.43 802.18 305.77 802.22 306.05 802.3 306.34 802.38 306.57 802.49 306.76 802.63 306.94 802.77 307.08 802.95 307.17 803.16 307.26 803.37 307.3 803.6 307.3 803.86 307.3 804.02 307.28 804.17 307.23 804.32 307.18 804.47 307.11 804.6 307.01 804.73 306.91 804.86 306.79 804.97 306.63 805.07 306.47 805.17 306.3 805.25 306.1 805.31 306.57 805.4 306.93 805.57 307.17 805.82 307.41 806.07 307.53 806.39 307.53 806.79 307.53 807.06 307.48 807.31 307.38 807.54 307.28 807.76 307.13 807.96 306.94 808.12 306.75 808.28 306.51 808.41 306.23 808.5 305.95 808.59 305.63 808.63 305.27 808.63L302.99 808.63ZM303.84 805.07 304.99 805.07C305.24 805.07 305.45 805.04 305.63 804.99 305.81 804.94 305.96 804.86 306.08 804.77 306.2 804.67 306.29 804.56 306.34 804.42 306.4 804.28 306.43 804.13 306.43 803.97 306.43 803.59 306.32 803.31 306.09 803.14 305.86 802.97 305.51 802.88 305.03 802.88L303.84 802.88 303.84 805.08ZM303.84 805.69 303.84 807.94 305.24 807.94C305.49 807.94 305.7 807.91 305.88 807.86 306.06 807.8 306.21 807.72 306.32 807.62 306.44 807.52 306.52 807.39 306.57 807.25 306.62 807.11 306.65 806.95 306.65 806.78 306.65 806.45 306.53 806.18 306.29 805.99 306.05 805.8 305.7 805.7 305.22 805.7L303.82 805.7Z" fill="#4D4D4D"/><path d="M311.43 808.63C311.35 808.63 311.29 808.62 311.25 808.59 311.21 808.56 311.17 808.51 311.15 808.44L311.06 808.01C310.94 808.12 310.82 808.21 310.71 808.3 310.59 808.38 310.47 808.46 310.35 808.52 310.23 808.58 310.09 808.62 309.95 808.65 309.81 808.68 309.65 808.7 309.48 808.7 309.31 808.7 309.14 808.67 308.98 808.63 308.82 808.58 308.69 808.51 308.57 808.41 308.45 808.31 308.36 808.19 308.29 808.03 308.22 807.88 308.19 807.7 308.19 807.49 308.19 807.31 308.24 807.14 308.34 806.97 308.44 806.8 308.6 806.66 308.82 806.53 309.04 806.4 309.33 806.3 309.69 806.21 310.05 806.13 310.48 806.08 311 806.07L311 805.71C311 805.36 310.92 805.09 310.77 804.91 310.62 804.73 310.39 804.64 310.1 804.64 309.9 804.64 309.74 804.66 309.6 804.71 309.47 804.76 309.35 804.81 309.25 804.88 309.15 804.95 309.07 805 309 805.05 308.93 805.1 308.86 805.12 308.79 805.12 308.74 805.12 308.69 805.11 308.65 805.08 308.61 805.05 308.58 805.02 308.55 804.97L308.41 804.71C308.66 804.47 308.93 804.29 309.22 804.17 309.51 804.05 309.83 803.99 310.19 803.99 310.44 803.99 310.67 804.03 310.87 804.12 311.07 804.2 311.23 804.32 311.37 804.47 311.5 804.62 311.61 804.8 311.68 805.01 311.75 805.22 311.78 805.46 311.78 805.71L311.78 808.63 311.42 808.63ZM309.71 808.14C309.85 808.14 309.98 808.13 310.1 808.1 310.22 808.07 310.33 808.03 310.43 807.98 310.53 807.93 310.63 807.86 310.73 807.79 310.82 807.71 310.92 807.63 311.01 807.53L311.01 806.59C310.64 806.6 310.33 806.63 310.07 806.68 309.81 806.73 309.6 806.79 309.44 806.86 309.28 806.94 309.16 807.02 309.08 807.13 309.01 807.23 308.97 807.35 308.97 807.47 308.97 807.59 308.99 807.69 309.03 807.78 309.07 807.87 309.12 807.94 309.19 807.99 309.26 808.04 309.34 808.09 309.43 808.11 309.52 808.14 309.62 808.15 309.72 808.15Z" fill="#4D4D4D"/><path d="M313 808.63 313 804.07 313.48 804.07C313.59 804.07 313.66 804.13 313.69 804.24L313.75 804.73C313.95 804.51 314.17 804.33 314.42 804.2 314.67 804.06 314.95 804 315.27 804 315.52 804 315.74 804.04 315.93 804.12 316.12 804.2 316.28 804.32 316.41 804.47 316.54 804.62 316.63 804.8 316.7 805.02 316.77 805.23 316.8 805.47 316.8 805.73L316.8 808.63 315.99 808.63 315.99 805.73C315.99 805.39 315.91 805.12 315.75 804.93 315.59 804.74 315.35 804.64 315.03 804.64 314.79 804.64 314.57 804.7 314.36 804.81 314.15 804.92 313.97 805.08 313.8 805.27L313.8 808.63 312.99 808.63Z" fill="#4D4D4D"/><path d="M321.32 808.63C321.21 808.63 321.13 808.57 321.1 808.46L321.03 807.91C320.83 808.15 320.61 808.34 320.36 808.48 320.11 808.62 319.82 808.69 319.5 808.69 319.24 808.69 319 808.64 318.79 808.54 318.58 808.44 318.4 808.29 318.25 808.1 318.1 807.91 317.98 807.66 317.9 807.37 317.82 807.08 317.78 806.74 317.78 806.37 317.78 806.03 317.82 805.72 317.91 805.43 318 805.14 318.13 804.89 318.3 804.68 318.47 804.47 318.67 804.3 318.92 804.18 319.17 804.06 319.44 804 319.75 804 320.03 804 320.27 804.05 320.47 804.14 320.67 804.23 320.85 804.37 321 804.54L321 802.01 321.8 802.01 321.8 808.64 321.32 808.64ZM319.76 808.04C320.02 808.04 320.25 807.98 320.45 807.86 320.65 807.74 320.83 807.57 320.99 807.35L320.99 805.15C320.84 804.95 320.68 804.81 320.5 804.73 320.32 804.65 320.13 804.61 319.92 804.61 319.5 804.61 319.17 804.76 318.94 805.06 318.71 805.36 318.6 805.8 318.6 806.36 318.6 806.66 318.63 806.91 318.68 807.12 318.73 807.33 318.81 807.51 318.91 807.64 319.01 807.78 319.13 807.88 319.27 807.94 319.41 808 319.58 808.03 319.76 808.03Z" fill="#4D4D4D"/><path d="M324.93 804C325.2 804 325.46 804.05 325.69 804.14 325.92 804.23 326.12 804.36 326.29 804.54 326.46 804.71 326.59 804.93 326.69 805.18 326.79 805.43 326.83 805.72 326.83 806.05 326.83 806.18 326.82 806.26 326.79 806.3 326.76 806.34 326.71 806.36 326.64 806.36L323.59 806.36C323.59 806.65 323.63 806.9 323.71 807.11 323.79 807.32 323.88 807.5 324.01 807.64 324.14 807.78 324.29 807.89 324.46 807.96 324.63 808.03 324.83 808.07 325.04 808.07 325.24 808.07 325.41 808.05 325.56 808 325.71 807.95 325.83 807.9 325.94 807.85 326.04 807.8 326.13 807.75 326.2 807.7 326.27 807.65 326.33 807.63 326.38 807.63 326.45 807.63 326.5 807.66 326.53 807.71L326.75 808C326.65 808.12 326.53 808.22 326.39 808.31 326.25 808.4 326.1 808.47 325.95 808.53 325.79 808.59 325.63 808.63 325.46 808.66 325.29 808.69 325.13 808.7 324.96 808.7 324.64 808.7 324.35 808.65 324.09 808.54 323.83 808.43 323.59 808.28 323.4 808.07 323.21 807.86 323.06 807.61 322.95 807.31 322.84 807.01 322.79 806.66 322.79 806.27 322.79 805.95 322.84 805.65 322.94 805.38 323.04 805.1 323.18 804.87 323.36 804.66 323.54 804.46 323.77 804.3 324.03 804.18 324.29 804.06 324.59 804.01 324.92 804.01ZM324.95 804.59C324.56 804.59 324.26 804.7 324.04 804.92 323.82 805.14 323.68 805.45 323.63 805.85L326.12 805.85C326.12 805.66 326.09 805.49 326.04 805.34 325.99 805.19 325.91 805.05 325.81 804.94 325.71 804.83 325.59 804.74 325.44 804.68 325.3 804.62 325.13 804.59 324.95 804.59Z" fill="#4D4D4D"/><path d="M328.83 802.64C328.83 802.72 328.81 802.79 328.78 802.86 328.75 802.93 328.71 802.99 328.65 803.04 328.59 803.09 328.54 803.13 328.47 803.16 328.4 803.19 328.32 803.2 328.25 803.2 328.18 803.2 328.1 803.19 328.03 803.16 327.96 803.13 327.9 803.09 327.85 803.04 327.8 802.99 327.76 802.93 327.73 802.86 327.7 802.79 327.68 802.72 327.68 802.64 327.68 802.56 327.7 802.49 327.73 802.42 327.76 802.35 327.8 802.29 327.85 802.24 327.9 802.19 327.96 802.15 328.03 802.12 328.1 802.09 328.17 802.08 328.25 802.08 328.33 802.08 328.4 802.09 328.47 802.12 328.54 802.15 328.6 802.19 328.65 802.24 328.7 802.29 328.74 802.35 328.78 802.42 328.81 802.49 328.83 802.56 328.83 802.64ZM328.66 804.07 328.66 808.63 327.86 808.63 327.86 804.07 328.66 804.07Z" fill="#4D4D4D"/><path d="M329.98 808.63 329.98 804.07 330.44 804.07C330.53 804.07 330.59 804.09 330.62 804.12 330.65 804.15 330.68 804.21 330.69 804.29L330.74 804.98C330.88 804.67 331.06 804.42 331.27 804.25 331.48 804.07 331.74 803.99 332.04 803.99 332.14 803.99 332.23 804 332.32 804.02 332.41 804.04 332.49 804.07 332.56 804.12L332.5 804.72C332.48 804.79 332.44 804.83 332.37 804.83 332.33 804.83 332.27 804.83 332.19 804.8 332.11 804.78 332.02 804.77 331.92 804.77 331.78 804.77 331.65 804.79 331.53 804.83 331.42 804.87 331.31 804.94 331.23 805.02 331.14 805.1 331.06 805.2 330.99 805.32 330.92 805.44 330.86 805.58 330.8 805.73L330.8 808.61 329.99 808.61Z" fill="#4D4D4D"/><path d="M336.08 808.63C336 808.63 335.94 808.62 335.9 808.59 335.86 808.56 335.82 808.51 335.8 808.44L335.71 808.01C335.59 808.12 335.47 808.21 335.36 808.3 335.24 808.38 335.12 808.46 335 808.52 334.88 808.58 334.74 808.62 334.6 808.65 334.46 808.68 334.3 808.7 334.13 808.7 333.96 808.7 333.79 808.67 333.63 808.63 333.47 808.58 333.34 808.51 333.22 808.41 333.1 808.31 333.01 808.19 332.95 808.03 332.89 807.87 332.85 807.7 332.85 807.49 332.85 807.31 332.9 807.14 333 806.97 333.1 806.8 333.26 806.66 333.48 806.53 333.7 806.4 333.99 806.3 334.35 806.21 334.71 806.13 335.14 806.08 335.66 806.07L335.66 805.71C335.66 805.36 335.58 805.09 335.43 804.91 335.28 804.73 335.05 804.64 334.76 804.64 334.56 804.64 334.4 804.66 334.26 804.71 334.13 804.76 334.01 804.81 333.91 804.88 333.81 804.94 333.73 805 333.66 805.05 333.59 805.1 333.52 805.12 333.45 805.12 333.4 805.12 333.35 805.11 333.31 805.08 333.27 805.05 333.24 805.02 333.21 804.97L333.07 804.71C333.32 804.47 333.59 804.29 333.88 804.17 334.17 804.05 334.49 803.99 334.85 803.99 335.11 803.99 335.33 804.03 335.53 804.12 335.73 804.21 335.89 804.32 336.03 804.47 336.16 804.62 336.27 804.8 336.34 805.01 336.41 805.22 336.44 805.46 336.44 805.71L336.44 808.63 336.08 808.63ZM334.36 808.14C334.5 808.14 334.63 808.13 334.75 808.1 334.87 808.07 334.98 808.03 335.08 807.98 335.18 807.93 335.28 807.86 335.38 807.79 335.47 807.71 335.57 807.63 335.66 807.53L335.66 806.59C335.29 806.6 334.98 806.63 334.72 806.68 334.46 806.73 334.25 806.79 334.09 806.86 333.93 806.94 333.81 807.02 333.73 807.13 333.66 807.23 333.62 807.35 333.62 807.47 333.62 807.59 333.64 807.69 333.68 807.78 333.72 807.87 333.77 807.94 333.84 807.99 333.91 808.04 333.99 808.09 334.08 808.11 334.17 808.14 334.27 808.15 334.37 808.15Z" fill="#4D4D4D"/><path d="M337.65 808.63 337.65 804.07 338.13 804.07C338.24 804.07 338.31 804.13 338.34 804.24L338.4 804.73C338.6 804.51 338.82 804.33 339.07 804.2 339.32 804.06 339.6 804 339.92 804 340.17 804 340.39 804.04 340.58 804.12 340.77 804.2 340.93 804.32 341.06 804.47 341.19 804.62 341.28 804.8 341.35 805.02 341.42 805.23 341.45 805.47 341.45 805.73L341.45 808.63 340.64 808.63 340.64 805.73C340.64 805.39 340.56 805.12 340.4 804.93 340.24 804.74 340 804.64 339.68 804.64 339.44 804.64 339.22 804.7 339.01 804.81 338.8 804.92 338.62 805.08 338.44 805.27L338.44 808.63 337.63 808.63Z" fill="#4D4D4D"/><path d="M344.01 808.7C343.65 808.7 343.37 808.6 343.18 808.4 342.99 808.2 342.89 807.91 342.89 807.53L342.89 804.74 342.34 804.74C342.34 804.74 342.25 804.73 342.22 804.7 342.19 804.67 342.17 804.63 342.17 804.57L342.17 804.25 342.92 804.16 343.1 802.75C343.1 802.75 343.13 802.67 343.16 802.64 343.19 802.61 343.23 802.6 343.28 802.6L343.69 802.6 343.69 804.17 345.01 804.17 345.01 804.75 343.69 804.75 343.69 807.49C343.69 807.68 343.74 807.82 343.83 807.92 343.92 808.01 344.04 808.06 344.19 808.06 344.27 808.06 344.35 808.05 344.41 808.03 344.47 808.01 344.52 807.98 344.57 807.96 344.62 807.93 344.65 807.91 344.69 807.89 344.73 807.87 344.75 807.86 344.77 807.86 344.81 807.86 344.85 807.89 344.88 807.94L345.11 808.32C344.97 808.45 344.81 808.55 344.61 808.62 344.41 808.69 344.21 808.73 344.01 808.73Z" fill="#4D4D4D"/><path d="M347.71 804C347.98 804 348.24 804.05 348.47 804.14 348.7 804.23 348.9 804.36 349.07 804.54 349.24 804.71 349.37 804.93 349.47 805.18 349.57 805.43 349.61 805.72 349.61 806.05 349.61 806.18 349.6 806.26 349.57 806.3 349.54 806.34 349.49 806.36 349.42 806.36L346.37 806.36C346.37 806.65 346.41 806.9 346.49 807.11 346.57 807.32 346.66 807.5 346.79 807.64 346.92 807.78 347.07 807.89 347.24 807.96 347.41 808.03 347.61 808.07 347.82 808.07 348.02 808.07 348.2 808.05 348.34 808 348.49 807.95 348.61 807.9 348.72 807.85 348.83 807.8 348.91 807.75 348.98 807.7 349.05 807.65 349.11 807.63 349.16 807.63 349.23 807.63 349.28 807.66 349.31 807.71L349.54 808C349.44 808.12 349.32 808.22 349.18 808.31 349.04 808.4 348.89 808.47 348.74 808.53 348.58 808.59 348.42 808.63 348.25 808.66 348.08 808.69 347.91 808.7 347.75 808.7 347.43 808.7 347.14 808.65 346.88 808.54 346.62 808.43 346.38 808.28 346.19 808.07 346 807.86 345.85 807.61 345.74 807.31 345.63 807.01 345.58 806.66 345.58 806.27 345.58 805.95 345.63 805.65 345.73 805.38 345.83 805.1 345.97 804.87 346.15 804.66 346.33 804.46 346.56 804.3 346.82 804.18 347.08 804.06 347.38 804.01 347.71 804.01ZM347.72 804.59C347.33 804.59 347.03 804.7 346.81 804.92 346.59 805.14 346.45 805.45 346.4 805.85L348.89 805.85C348.89 805.66 348.86 805.49 348.81 805.34 348.76 805.19 348.68 805.05 348.58 804.94 348.48 804.83 348.36 804.74 348.21 804.68 348.07 804.62 347.9 804.59 347.72 804.59Z" fill="#4D4D4D"/><path d="M353.25 804.82C353.21 804.89 353.16 804.92 353.08 804.92 353.04 804.92 352.98 804.9 352.93 804.87 352.87 804.84 352.8 804.8 352.72 804.76 352.64 804.72 352.54 804.68 352.43 804.65 352.32 804.62 352.18 804.6 352.02 804.6 351.89 804.6 351.76 804.62 351.66 804.65 351.55 804.69 351.46 804.73 351.38 804.79 351.3 804.85 351.25 804.92 351.2 805 351.16 805.08 351.14 805.17 351.14 805.26 351.14 805.38 351.17 805.47 351.24 805.55 351.31 805.63 351.4 805.7 351.51 805.75 351.62 805.81 351.75 805.86 351.89 805.9 352.03 805.94 352.18 805.99 352.32 806.04 352.47 806.09 352.61 806.14 352.75 806.2 352.89 806.26 353.02 806.33 353.13 806.42 353.24 806.51 353.33 806.62 353.4 806.75 353.47 806.88 353.5 807.04 353.5 807.22 353.5 807.43 353.46 807.62 353.39 807.8 353.31 807.98 353.2 808.13 353.06 808.26 352.91 808.39 352.73 808.49 352.52 808.57 352.31 808.64 352.06 808.68 351.78 808.68 351.46 808.68 351.17 808.63 350.92 808.52 350.66 808.42 350.44 808.28 350.26 808.12L350.45 807.81C350.45 807.81 350.5 807.74 350.54 807.72 350.57 807.7 350.62 807.69 350.67 807.69 350.72 807.69 350.78 807.71 350.84 807.75 350.9 807.79 350.97 807.84 351.06 807.89 351.15 807.94 351.25 807.99 351.37 808.03 351.49 808.07 351.65 808.09 351.83 808.09 351.99 808.09 352.12 808.07 352.24 808.03 352.36 807.99 352.45 807.93 352.53 807.87 352.61 807.8 352.67 807.72 352.7 807.63 352.73 807.54 352.76 807.44 352.76 807.34 352.76 807.21 352.73 807.11 352.66 807.03 352.59 806.95 352.5 806.88 352.39 806.82 352.28 806.76 352.15 806.71 352.01 806.67 351.87 806.63 351.72 806.58 351.57 806.53 351.42 806.48 351.28 806.43 351.13 806.37 350.98 806.31 350.86 806.23 350.75 806.14 350.64 806.05 350.55 805.93 350.48 805.8 350.41 805.66 350.38 805.5 350.38 805.3 350.38 805.13 350.42 804.96 350.49 804.8 350.56 804.64 350.67 804.5 350.8 804.38 350.94 804.26 351.11 804.16 351.31 804.09 351.51 804.02 351.74 803.98 352 803.98 352.3 803.98 352.57 804.03 352.81 804.12 353.05 804.21 353.26 804.34 353.43 804.51L353.25 804.8Z" fill="#4D4D4D"/><path d="M354.33 808.07C354.33 807.93 354.38 807.81 354.48 807.71 354.58 807.61 354.71 807.56 354.87 807.56 354.96 807.56 355.04 807.58 355.11 807.61 355.18 807.64 355.24 807.69 355.28 807.75 355.32 807.81 355.36 807.88 355.39 807.95 355.41 808.03 355.43 808.11 355.43 808.2 355.43 808.33 355.41 808.48 355.37 808.62 355.33 808.77 355.28 808.91 355.2 809.05 355.12 809.19 355.04 809.33 354.93 809.47 354.82 809.61 354.71 809.73 354.57 809.84L354.44 809.71C354.44 809.71 354.4 809.67 354.39 809.65 354.39 809.63 354.38 809.61 354.38 809.58 354.38 809.56 354.38 809.54 354.4 809.52 354.41 809.5 354.43 809.48 354.45 809.46 354.48 809.43 354.52 809.38 354.56 809.33 354.6 809.28 354.65 809.21 354.7 809.14 354.75 809.07 354.79 808.99 354.83 808.9 354.87 808.81 354.9 808.72 354.92 808.62L354.86 808.62C354.7 808.62 354.58 808.57 354.48 808.46 354.38 808.35 354.33 808.22 354.33 808.06Z" fill="#4D4D4D"/><path d="M359.32 808.01 360.7 808.01 360.7 803.61C360.7 803.48 360.7 803.35 360.71 803.21L359.56 804.2C359.56 804.2 359.48 804.25 359.44 804.26 359.4 804.26 359.36 804.26 359.33 804.26 359.3 804.26 359.27 804.24 359.24 804.22 359.21 804.2 359.19 804.18 359.17 804.16L358.92 803.81 360.84 802.15 361.49 802.15 361.49 808 362.76 808 362.76 808.61 359.3 808.61 359.3 808Z" fill="#4D4D4D"/><path d="M364.55 808.01 365.93 808.01 365.93 803.61C365.93 803.48 365.93 803.35 365.94 803.21L364.79 804.2C364.79 804.2 364.71 804.25 364.67 804.26 364.63 804.26 364.59 804.26 364.56 804.26 364.53 804.26 364.5 804.24 364.47 804.22 364.44 804.2 364.42 804.18 364.4 804.16L364.15 803.81 366.07 802.15 366.72 802.15 366.72 808 367.99 808 367.99 808.61 364.53 808.61 364.53 808Z" fill="#4D4D4D"/><path d="M369.77 808.01 371.15 808.01 371.15 803.61C371.15 803.48 371.15 803.35 371.16 803.21L370.01 804.2C370.01 804.2 369.93 804.25 369.89 804.26 369.85 804.26 369.81 804.26 369.78 804.26 369.75 804.26 369.72 804.24 369.69 804.22 369.66 804.2 369.64 804.18 369.62 804.16L369.37 803.81 371.29 802.15 371.94 802.15 371.94 808 373.21 808 373.21 808.61 369.75 808.61 369.75 808Z" fill="#4D4D4D"/><path d="M376.73 805.59 378.95 805.59 378.95 806.27 376.73 806.27 376.73 805.59Z" fill="#4D4D4D"/><path d="M387.16 807.29C387.16 807.29 387.25 807.31 387.29 807.35L387.64 807.72C387.38 808.03 387.06 808.26 386.68 808.44 386.3 808.61 385.85 808.7 385.31 808.7 384.85 808.7 384.43 808.62 384.05 808.46 383.67 808.3 383.35 808.07 383.08 807.79 382.81 807.5 382.61 807.15 382.46 806.75 382.31 806.35 382.24 805.9 382.24 805.41 382.24 804.92 382.32 804.48 382.47 804.07 382.62 803.66 382.84 803.32 383.12 803.03 383.4 802.74 383.73 802.51 384.12 802.35 384.51 802.19 384.93 802.11 385.4 802.11 385.87 802.11 386.26 802.18 386.61 802.33 386.96 802.48 387.27 802.68 387.54 802.93L387.25 803.33C387.25 803.33 387.21 803.38 387.18 803.4 387.15 803.42 387.11 803.43 387.07 803.43 387.02 803.43 386.95 803.4 386.87 803.34 386.79 803.28 386.69 803.22 386.56 803.14 386.43 803.07 386.28 803 386.09 802.94 385.9 802.88 385.67 802.85 385.39 802.85 385.06 802.85 384.75 802.91 384.48 803.02 384.2 803.14 383.97 803.3 383.77 803.52 383.57 803.74 383.41 804.01 383.3 804.32 383.19 804.63 383.13 804.99 383.13 805.39 383.13 805.79 383.19 806.15 383.3 806.47 383.42 806.79 383.57 807.05 383.77 807.27 383.97 807.49 384.21 807.65 384.48 807.77 384.75 807.89 385.04 807.94 385.36 807.94 385.55 807.94 385.73 807.93 385.88 807.91 386.03 807.89 386.18 807.85 386.31 807.8 386.44 807.75 386.56 807.69 386.67 807.62 386.78 807.55 386.89 807.46 387 807.36 387.05 807.32 387.1 807.29 387.15 807.29Z" fill="#4D4D4D"/><path d="M390.23 804C390.5 804 390.76 804.05 390.99 804.14 391.22 804.23 391.42 804.36 391.59 804.54 391.76 804.71 391.89 804.93 391.99 805.18 392.09 805.43 392.13 805.72 392.13 806.05 392.13 806.18 392.12 806.26 392.09 806.3 392.06 806.34 392.01 806.36 391.94 806.36L388.89 806.36C388.89 806.65 388.94 806.9 389.01 807.11 389.08 807.32 389.18 807.5 389.31 807.64 389.44 807.78 389.59 807.89 389.76 807.96 389.93 808.03 390.13 808.07 390.34 808.07 390.54 808.07 390.71 808.05 390.86 808 391.01 807.95 391.13 807.9 391.24 807.85 391.35 807.8 391.43 807.75 391.5 807.7 391.57 807.65 391.63 807.63 391.68 807.63 391.75 807.63 391.8 807.66 391.83 807.71L392.06 808C391.96 808.12 391.84 808.22 391.7 808.31 391.56 808.4 391.41 808.47 391.26 808.53 391.1 808.59 390.94 808.63 390.77 808.66 390.6 808.69 390.44 808.7 390.27 808.7 389.96 808.7 389.66 808.65 389.4 808.54 389.14 808.43 388.91 808.28 388.71 808.07 388.52 807.86 388.37 807.61 388.26 807.31 388.15 807.01 388.1 806.66 388.1 806.27 388.1 805.95 388.15 805.65 388.25 805.38 388.35 805.1 388.49 804.87 388.67 804.66 388.85 804.46 389.08 804.3 389.34 804.18 389.6 804.06 389.9 804.01 390.23 804.01ZM390.25 804.59C389.86 804.59 389.56 804.7 389.34 804.92 389.12 805.14 388.98 805.45 388.93 805.85L391.42 805.85C391.42 805.66 391.39 805.49 391.34 805.34 391.29 805.19 391.21 805.05 391.11 804.94 391.01 804.83 390.89 804.74 390.74 804.68 390.6 804.62 390.43 804.59 390.25 804.59Z" fill="#4D4D4D"/><path d="M393.12 808.63 393.12 804.07 393.6 804.07C393.71 804.07 393.78 804.13 393.81 804.24L393.87 804.73C394.07 804.51 394.29 804.33 394.54 804.2 394.79 804.06 395.07 804 395.39 804 395.64 804 395.86 804.04 396.05 804.12 396.24 804.2 396.4 804.32 396.53 804.47 396.66 804.62 396.75 804.8 396.82 805.02 396.89 805.23 396.92 805.47 396.92 805.73L396.92 808.63 396.11 808.63 396.11 805.73C396.11 805.39 396.03 805.12 395.87 804.93 395.71 804.74 395.47 804.64 395.15 804.64 394.91 804.64 394.69 804.7 394.48 804.81 394.27 804.92 394.09 805.08 393.92 805.27L393.92 808.63 393.11 808.63Z" fill="#4D4D4D"/><path d="M399.48 808.7C399.12 808.7 398.84 808.6 398.65 808.4 398.46 808.2 398.36 807.91 398.36 807.53L398.36 804.74 397.81 804.74C397.81 804.74 397.72 804.73 397.69 804.7 397.66 804.67 397.64 804.63 397.64 804.57L397.64 804.25 398.39 804.16 398.57 802.75C398.57 802.75 398.6 802.67 398.63 802.64 398.66 802.61 398.7 802.6 398.75 802.6L399.16 802.6 399.16 804.17 400.48 804.17 400.48 804.75 399.16 804.75 399.16 807.49C399.16 807.68 399.21 807.82 399.3 807.92 399.39 808.01 399.51 808.06 399.66 808.06 399.74 808.06 399.82 808.05 399.88 808.03 399.94 808.01 399.99 807.98 400.04 807.96 400.08 807.93 400.12 807.91 400.16 807.89 400.19 807.87 400.22 807.86 400.24 807.86 400.28 807.86 400.32 807.89 400.35 807.94L400.58 808.32C400.44 808.45 400.28 808.55 400.08 808.62 399.89 808.69 399.68 808.73 399.48 808.73Z" fill="#4D4D4D"/><path d="M401.31 808.63 401.31 804.07 401.77 804.07C401.86 804.07 401.92 804.09 401.95 804.12 401.98 804.15 402.01 804.21 402.02 804.29L402.07 804.98C402.21 804.67 402.39 804.42 402.6 804.25 402.81 804.07 403.07 803.99 403.37 803.99 403.47 803.99 403.56 804 403.65 804.02 403.74 804.04 403.82 804.07 403.89 804.12L403.83 804.72C403.81 804.79 403.77 804.83 403.69 804.83 403.65 804.83 403.59 804.83 403.51 804.8 403.43 804.78 403.34 804.77 403.24 804.77 403.1 804.77 402.97 804.79 402.85 804.83 402.74 804.87 402.64 804.94 402.55 805.02 402.46 805.1 402.38 805.2 402.31 805.32 402.24 805.44 402.18 805.58 402.12 805.73L402.12 808.61 401.31 808.61Z" fill="#4D4D4D"/><path d="M406.32 804C406.65 804 406.95 804.06 407.22 804.17 407.49 804.28 407.72 804.44 407.9 804.64 408.09 804.84 408.23 805.09 408.33 805.38 408.43 805.67 408.48 805.99 408.48 806.35 408.48 806.71 408.43 807.03 408.33 807.32 408.23 807.61 408.08 807.85 407.9 808.06 407.71 808.26 407.48 808.42 407.22 808.53 406.95 808.64 406.65 808.7 406.32 808.7 405.99 808.7 405.68 808.64 405.41 808.53 405.14 808.42 404.91 808.26 404.72 808.06 404.53 807.86 404.39 807.61 404.29 807.32 404.19 807.03 404.14 806.71 404.14 806.35 404.14 805.99 404.19 805.67 404.29 805.38 404.39 805.09 404.54 804.84 404.72 804.64 404.91 804.44 405.14 804.28 405.41 804.17 405.68 804.06 405.98 804 406.32 804ZM406.32 808.06C406.77 808.06 407.11 807.91 407.33 807.61 407.55 807.31 407.66 806.89 407.66 806.35 407.66 805.81 407.55 805.38 407.33 805.08 407.11 804.78 406.77 804.62 406.32 804.62 406.09 804.62 405.89 804.66 405.72 804.74 405.55 804.82 405.41 804.93 405.3 805.08 405.19 805.23 405.1 805.41 405.05 805.62 404.99 805.83 404.97 806.08 404.97 806.35 404.97 806.89 405.08 807.31 405.31 807.61 405.53 807.91 405.87 808.06 406.33 808.06Z" fill="#4D4D4D"/><path d="M411.73 805.59 413.95 805.59 413.95 806.27 411.73 806.27 411.73 805.59Z" fill="#4D4D4D"/><path d="M422.58 808.63 421.9 808.63C421.82 808.63 421.76 808.61 421.71 808.57 421.66 808.53 421.63 808.48 421.6 808.42L421 806.86 418.11 806.86 417.51 808.42C417.49 808.47 417.46 808.52 417.41 808.56 417.36 808.6 417.3 808.62 417.22 808.62L416.55 808.62 419.13 802.17 420.01 802.17 422.59 808.62ZM418.36 806.23 420.77 806.23 419.76 803.61C419.73 803.53 419.69 803.44 419.66 803.34 419.63 803.24 419.6 803.13 419.56 803.01 419.53 803.13 419.5 803.24 419.47 803.34 419.44 803.44 419.41 803.53 419.37 803.61L418.36 806.23Z" fill="#4D4D4D"/><path d="M423.24 808.63 423.24 804.07 423.7 804.07C423.79 804.07 423.85 804.09 423.88 804.12 423.91 804.15 423.94 804.21 423.95 804.29L424 804.98C424.14 804.67 424.32 804.42 424.53 804.25 424.74 804.07 425 803.99 425.3 803.99 425.4 803.99 425.49 804 425.58 804.02 425.67 804.04 425.75 804.07 425.82 804.12L425.76 804.72C425.74 804.79 425.7 804.83 425.62 804.83 425.58 804.83 425.52 804.83 425.44 804.8 425.36 804.78 425.27 804.77 425.17 804.77 425.03 804.77 424.9 804.79 424.78 804.83 424.67 804.87 424.57 804.94 424.48 805.02 424.39 805.1 424.31 805.2 424.24 805.32 424.17 805.44 424.11 805.58 424.05 805.73L424.05 808.61 423.24 808.61Z" fill="#4D4D4D"/><path d="M429.34 808.63C429.26 808.63 429.2 808.62 429.16 808.59 429.12 808.56 429.08 808.51 429.06 808.44L428.97 808.01C428.85 808.12 428.73 808.21 428.62 808.3 428.5 808.38 428.38 808.46 428.26 808.52 428.14 808.58 428 808.62 427.86 808.65 427.72 808.68 427.56 808.7 427.39 808.7 427.22 808.7 427.05 808.67 426.89 808.63 426.73 808.58 426.6 808.51 426.48 808.41 426.36 808.31 426.27 808.19 426.21 808.03 426.15 807.87 426.11 807.7 426.11 807.49 426.11 807.31 426.16 807.14 426.26 806.97 426.36 806.8 426.52 806.66 426.74 806.53 426.96 806.4 427.25 806.3 427.61 806.21 427.97 806.13 428.4 806.08 428.92 806.07L428.92 805.71C428.92 805.36 428.84 805.09 428.69 804.91 428.54 804.73 428.31 804.64 428.02 804.64 427.82 804.64 427.66 804.66 427.52 804.71 427.39 804.76 427.27 804.81 427.17 804.88 427.07 804.95 426.99 805 426.92 805.05 426.85 805.1 426.78 805.12 426.71 805.12 426.66 805.12 426.61 805.11 426.57 805.08 426.53 805.05 426.5 805.02 426.47 804.97L426.33 804.71C426.58 804.47 426.85 804.29 427.14 804.17 427.43 804.05 427.75 803.99 428.11 803.99 428.36 803.99 428.59 804.03 428.79 804.12 428.99 804.2 429.16 804.32 429.29 804.47 429.42 804.62 429.53 804.8 429.6 805.01 429.67 805.22 429.7 805.46 429.7 805.71L429.7 808.63 429.34 808.63ZM427.63 808.14C427.77 808.14 427.9 808.13 428.02 808.1 428.14 808.07 428.25 808.03 428.35 807.98 428.45 807.93 428.55 807.86 428.65 807.79 428.74 807.71 428.84 807.63 428.93 807.53L428.93 806.59C428.56 806.6 428.25 806.63 427.99 806.68 427.73 806.73 427.52 806.79 427.36 806.86 427.2 806.94 427.08 807.02 427 807.13 426.93 807.23 426.89 807.35 426.89 807.47 426.89 807.59 426.91 807.69 426.95 807.78 426.99 807.87 427.04 807.94 427.11 807.99 427.18 808.04 427.26 808.09 427.35 808.11 427.44 808.14 427.54 808.15 427.64 808.15Z" fill="#4D4D4D"/><path d="M432.18 809.77C432.18 809.77 432.22 809.77 432.24 809.79 432.26 809.81 432.29 809.81 432.33 809.83 432.37 809.85 432.41 809.86 432.45 809.87 432.5 809.87 432.55 809.89 432.62 809.89 432.75 809.89 432.84 809.86 432.9 809.81 432.96 809.76 432.99 809.69 432.99 809.62 432.99 809.51 432.93 809.43 432.8 809.38 432.67 809.33 432.5 809.3 432.27 809.26L432.45 808.7C432.19 808.68 431.95 808.61 431.73 808.49 431.51 808.37 431.32 808.22 431.16 808.02 431 807.82 430.87 807.58 430.78 807.31 430.69 807.04 430.65 806.72 430.65 806.37 430.65 806.02 430.7 805.72 430.79 805.43 430.88 805.14 431.02 804.89 431.2 804.68 431.38 804.47 431.61 804.31 431.87 804.19 432.13 804.07 432.44 804.01 432.79 804.01 433.11 804.01 433.39 804.06 433.64 804.17 433.89 804.28 434.1 804.42 434.29 804.61L434.08 804.9C434.08 804.9 434.03 804.96 434.01 804.98 433.99 805 433.95 805.01 433.91 805.01 433.87 805.01 433.82 804.99 433.76 804.95 433.7 804.91 433.64 804.87 433.56 804.83 433.48 804.79 433.38 804.74 433.27 804.71 433.15 804.67 433.01 804.65 432.84 804.65 432.62 804.65 432.42 804.69 432.25 804.77 432.08 804.85 431.94 804.96 431.82 805.11 431.7 805.26 431.62 805.44 431.56 805.65 431.5 805.86 431.47 806.1 431.47 806.37 431.47 806.64 431.5 806.89 431.56 807.11 431.62 807.32 431.71 807.5 431.83 807.65 431.95 807.8 432.08 807.91 432.25 807.98 432.41 808.06 432.6 808.1 432.8 808.1 433 808.1 433.16 808.08 433.28 808.03 433.41 807.98 433.51 807.93 433.59 807.87 433.67 807.81 433.74 807.76 433.8 807.71 433.86 807.66 433.91 807.64 433.96 807.64 434.03 807.64 434.08 807.67 434.11 807.72L434.33 808.01C434.16 808.22 433.95 808.39 433.7 808.5 433.45 808.61 433.19 808.68 432.9 808.7L432.82 808.99C433.1 809.05 433.3 809.13 433.43 809.23 433.55 809.34 433.62 809.47 433.62 809.63 433.62 809.73 433.6 809.81 433.55 809.89 433.5 809.97 433.44 810.03 433.35 810.09 433.27 810.14 433.16 810.18 433.04 810.21 432.92 810.24 432.79 810.25 432.65 810.25 432.53 810.25 432.41 810.24 432.3 810.21 432.19 810.18 432.09 810.15 432 810.11L432.07 809.86C432.09 809.81 432.12 809.78 432.17 809.78Z" fill="#4D4D4D"/><path d="M438.12 808.63C438.04 808.63 437.98 808.62 437.94 808.59 437.9 808.56 437.86 808.51 437.84 808.44L437.75 808.01C437.63 808.12 437.51 808.21 437.4 808.3 437.28 808.38 437.16 808.46 437.04 808.52 436.92 808.58 436.78 808.62 436.64 808.65 436.5 808.68 436.34 808.7 436.17 808.7 436 808.7 435.83 808.67 435.67 808.63 435.51 808.58 435.38 808.51 435.26 808.41 435.14 808.31 435.05 808.19 434.99 808.03 434.93 807.87 434.89 807.7 434.89 807.49 434.89 807.31 434.94 807.14 435.04 806.97 435.14 806.8 435.3 806.66 435.52 806.53 435.74 806.4 436.03 806.3 436.39 806.21 436.75 806.13 437.18 806.08 437.7 806.07L437.7 805.71C437.7 805.36 437.62 805.09 437.47 804.91 437.32 804.73 437.09 804.64 436.8 804.64 436.6 804.64 436.44 804.66 436.3 804.71 436.17 804.76 436.05 804.81 435.95 804.88 435.85 804.95 435.77 805 435.7 805.05 435.63 805.1 435.56 805.12 435.49 805.12 435.44 805.12 435.39 805.11 435.35 805.08 435.31 805.05 435.28 805.02 435.25 804.97L435.11 804.71C435.36 804.47 435.63 804.29 435.92 804.17 436.21 804.05 436.53 803.99 436.89 803.99 437.14 803.99 437.37 804.03 437.57 804.12 437.77 804.2 437.94 804.32 438.07 804.47 438.2 804.62 438.31 804.8 438.38 805.01 438.45 805.22 438.48 805.46 438.48 805.71L438.48 808.63 438.12 808.63ZM436.4 808.14C436.54 808.14 436.67 808.13 436.79 808.1 436.91 808.07 437.02 808.03 437.12 807.98 437.22 807.93 437.32 807.86 437.42 807.79 437.51 807.71 437.61 807.63 437.7 807.53L437.7 806.59C437.33 806.6 437.02 806.63 436.76 806.68 436.5 806.73 436.29 806.79 436.13 806.86 435.97 806.94 435.85 807.02 435.77 807.13 435.7 807.23 435.66 807.35 435.66 807.47 435.66 807.59 435.68 807.69 435.72 807.78 435.76 807.87 435.81 807.94 435.88 807.99 435.95 808.04 436.03 808.09 436.12 808.11 436.21 808.14 436.31 808.15 436.41 808.15Z" fill="#4D4D4D"/><path d="M441.04 808.7C440.68 808.7 440.4 808.6 440.21 808.4 440.02 808.2 439.92 807.91 439.92 807.53L439.92 804.74 439.37 804.74C439.37 804.74 439.28 804.73 439.25 804.7 439.22 804.67 439.2 804.63 439.2 804.57L439.2 804.25 439.95 804.16 440.13 802.75C440.13 802.75 440.16 802.67 440.19 802.64 440.22 802.61 440.26 802.6 440.31 802.6L440.72 802.6 440.72 804.17 442.04 804.17 442.04 804.75 440.72 804.75 440.72 807.49C440.72 807.68 440.77 807.82 440.86 807.92 440.95 808.01 441.07 808.06 441.22 808.06 441.3 808.06 441.38 808.05 441.44 808.03 441.5 808.01 441.55 807.98 441.6 807.96 441.64 807.93 441.68 807.91 441.72 807.89 441.75 807.87 441.78 807.86 441.8 807.86 441.84 807.86 441.88 807.89 441.91 807.94L442.14 808.32C442 808.45 441.84 808.55 441.64 808.62 441.45 808.69 441.24 808.73 441.04 808.73Z" fill="#4D4D4D"/><path d="M443.62 804.07 443.62 806.98C443.62 807.32 443.7 807.59 443.86 807.78 444.02 807.97 444.26 808.06 444.58 808.06 444.81 808.06 445.04 808.01 445.24 807.89 445.44 807.77 445.64 807.62 445.81 807.43L445.81 804.07 446.61 804.07 446.61 808.63 446.13 808.63C446.02 808.63 445.94 808.57 445.91 808.46L445.85 807.97C445.65 808.19 445.43 808.37 445.18 808.5 444.93 808.63 444.65 808.7 444.33 808.7 444.08 808.7 443.86 808.66 443.67 808.58 443.48 808.5 443.32 808.38 443.19 808.23 443.06 808.08 442.96 807.9 442.9 807.69 442.84 807.48 442.8 807.24 442.8 806.98L442.8 804.07 443.6 804.07Z" fill="#4D4D4D"/><path d="M447.88 808.63 447.88 802 448.69 802 448.69 804.73C448.88 804.51 449.09 804.33 449.34 804.19 449.59 804.05 449.86 803.99 450.18 803.99 450.45 803.99 450.69 804.04 450.9 804.14 451.11 804.24 451.3 804.39 451.45 804.58 451.6 804.77 451.71 805.01 451.79 805.28 451.87 805.56 451.91 805.87 451.91 806.21 451.91 806.58 451.87 806.92 451.78 807.22 451.69 807.52 451.56 807.78 451.39 808 451.22 808.21 451.01 808.38 450.77 808.5 450.53 808.62 450.25 808.68 449.95 808.68 449.65 808.68 449.4 808.62 449.19 808.51 448.98 808.4 448.81 808.24 448.65 808.03L448.61 808.44C448.59 808.55 448.52 808.61 448.4 808.61L447.88 808.61ZM449.9 804.64C449.64 804.64 449.41 804.7 449.22 804.82 449.03 804.94 448.85 805.11 448.68 805.33L448.68 807.54C448.83 807.74 448.99 807.88 449.16 807.96 449.33 808.04 449.53 808.08 449.74 808.08 450.17 808.08 450.5 807.93 450.73 807.62 450.96 807.32 451.07 806.87 451.07 806.27 451.07 805.71 450.97 805.3 450.77 805.04 450.57 804.78 450.28 804.65 449.9 804.65Z" fill="#4D4D4D"/><path d="M455.82 808.63C455.74 808.63 455.68 808.62 455.64 808.59 455.6 808.56 455.56 808.51 455.54 808.44L455.45 808.01C455.33 808.12 455.21 808.21 455.1 808.3 454.98 808.38 454.86 808.46 454.74 808.52 454.62 808.58 454.48 808.62 454.34 808.65 454.2 808.68 454.04 808.7 453.87 808.7 453.7 808.7 453.53 808.67 453.37 808.63 453.21 808.58 453.08 808.51 452.96 808.41 452.84 808.31 452.75 808.19 452.69 808.03 452.63 807.87 452.59 807.7 452.59 807.49 452.59 807.31 452.64 807.14 452.74 806.97 452.84 806.8 453 806.66 453.22 806.53 453.44 806.4 453.73 806.3 454.09 806.21 454.45 806.13 454.88 806.08 455.4 806.07L455.4 805.71C455.4 805.36 455.32 805.09 455.17 804.91 455.02 804.73 454.79 804.64 454.5 804.64 454.3 804.64 454.14 804.66 454 804.71 453.87 804.76 453.75 804.81 453.65 804.88 453.55 804.95 453.47 805 453.4 805.05 453.33 805.1 453.26 805.12 453.19 805.12 453.14 805.12 453.09 805.11 453.05 805.08 453.01 805.05 452.98 805.02 452.95 804.97L452.81 804.71C453.06 804.47 453.33 804.29 453.62 804.17 453.91 804.05 454.23 803.99 454.59 803.99 454.84 803.99 455.07 804.03 455.27 804.12 455.47 804.2 455.64 804.32 455.77 804.47 455.9 804.62 456.01 804.8 456.08 805.01 456.15 805.22 456.18 805.46 456.18 805.71L456.18 808.63 455.82 808.63ZM454.1 808.14C454.24 808.14 454.37 808.13 454.49 808.1 454.61 808.07 454.72 808.03 454.82 807.98 454.92 807.93 455.02 807.86 455.12 807.79 455.21 807.71 455.31 807.63 455.4 807.53L455.4 806.59C455.03 806.6 454.72 806.63 454.46 806.68 454.2 806.73 453.99 806.79 453.83 806.86 453.67 806.94 453.55 807.02 453.47 807.13 453.4 807.23 453.36 807.35 453.36 807.47 453.36 807.59 453.38 807.69 453.42 807.78 453.46 807.87 453.51 807.94 453.58 807.99 453.65 808.04 453.73 808.09 453.82 808.11 453.91 808.14 454.01 808.15 454.11 808.15Z" fill="#4D4D4D"/><path d="M457.83 808.72C457.79 808.82 457.73 808.9 457.65 808.95 457.57 809 457.48 809.03 457.4 809.03L457.06 809.03 459.76 802.29C459.8 802.19 459.85 802.12 459.92 802.07 459.99 802.02 460.08 801.99 460.17 801.99L460.51 801.99 457.82 808.71Z" fill="#4D4D4D"/><path d="M464.95 803.19C464.95 803.19 464.89 803.27 464.86 803.29 464.83 803.31 464.79 803.32 464.75 803.32 464.7 803.32 464.64 803.29 464.57 803.24 464.5 803.19 464.41 803.13 464.31 803.07 464.21 803.01 464.08 802.95 463.94 802.9 463.79 802.85 463.62 802.82 463.41 802.82 463.22 802.82 463.04 802.85 462.9 802.9 462.75 802.95 462.63 803.02 462.53 803.11 462.43 803.2 462.35 803.31 462.3 803.43 462.25 803.55 462.22 803.68 462.22 803.82 462.22 804 462.26 804.15 462.35 804.27 462.44 804.39 462.56 804.49 462.7 804.57 462.84 804.65 463.01 804.73 463.2 804.79 463.38 804.85 463.57 804.91 463.77 804.98 463.96 805.05 464.15 805.12 464.34 805.2 464.52 805.28 464.69 805.39 464.84 805.51 464.99 805.63 465.1 805.79 465.19 805.97 465.28 806.15 465.32 806.38 465.32 806.65 465.32 806.93 465.27 807.2 465.18 807.44 465.08 807.69 464.94 807.9 464.76 808.09 464.58 808.28 464.35 808.42 464.08 808.52 463.81 808.63 463.51 808.68 463.16 808.68 462.74 808.68 462.36 808.6 462.02 808.45 461.68 808.3 461.39 808.09 461.14 807.84L461.39 807.43C461.39 807.43 461.44 807.37 461.48 807.35 461.52 807.33 461.55 807.32 461.6 807.32 461.64 807.32 461.68 807.34 461.73 807.37 461.78 807.4 461.84 807.44 461.9 807.49 461.96 807.54 462.04 807.59 462.12 807.65 462.2 807.71 462.29 807.76 462.4 807.81 462.5 807.86 462.62 807.9 462.75 807.93 462.88 807.96 463.03 807.98 463.2 807.98 463.41 807.98 463.59 807.95 463.75 807.89 463.91 807.83 464.05 807.75 464.16 807.65 464.27 807.55 464.36 807.42 464.42 807.28 464.48 807.14 464.51 806.98 464.51 806.8 464.51 806.6 464.47 806.44 464.38 806.32 464.29 806.2 464.18 806.09 464.03 806.01 463.89 805.93 463.72 805.85 463.53 805.8 463.34 805.74 463.15 805.68 462.96 805.62 462.77 805.56 462.58 805.49 462.39 805.41 462.2 805.33 462.04 805.22 461.89 805.1 461.75 804.97 461.63 804.81 461.54 804.62 461.45 804.43 461.41 804.19 461.41 803.9 461.41 803.67 461.45 803.45 461.54 803.24 461.63 803.03 461.76 802.84 461.93 802.67 462.1 802.5 462.31 802.37 462.56 802.27 462.81 802.17 463.09 802.12 463.41 802.12 463.77 802.12 464.1 802.18 464.39 802.29 464.68 802.4 464.95 802.57 465.17 802.79L464.96 803.2Z" fill="#4D4D4D"/><path d="M467.4 806.21 467.4 808.62 466.53 808.62 466.53 802.17 468.43 802.17C468.84 802.17 469.19 802.22 469.49 802.31 469.79 802.4 470.04 802.54 470.24 802.71 470.44 802.88 470.59 803.09 470.68 803.34 470.78 803.59 470.83 803.86 470.83 804.16 470.83 804.46 470.78 804.73 470.67 804.98 470.56 805.23 470.41 805.44 470.21 805.62 470.01 805.8 469.76 805.94 469.46 806.04 469.16 806.14 468.82 806.19 468.43 806.19L467.4 806.19ZM467.4 805.52 468.43 805.52C468.68 805.52 468.9 805.49 469.09 805.42 469.28 805.35 469.44 805.26 469.57 805.14 469.7 805.02 469.8 804.88 469.86 804.71 469.93 804.54 469.96 804.36 469.96 804.17 469.96 803.76 469.83 803.44 469.58 803.21 469.33 802.98 468.94 802.86 468.43 802.86L467.4 802.86 467.4 805.51Z" fill="#4D4D4D"/><path d="M293.21 822.01 294.59 822.01 294.59 817.61C294.59 817.48 294.59 817.35 294.6 817.21L293.45 818.2C293.45 818.2 293.37 818.25 293.33 818.26 293.29 818.26 293.26 818.26 293.22 818.26 293.18 818.26 293.16 818.24 293.13 818.22 293.1 818.2 293.08 818.18 293.07 818.16L292.82 817.81 294.74 816.15 295.39 816.15 295.39 822 296.66 822 296.66 822.61 293.2 822.61 293.2 822Z" fill="#4D4D4D"/><path d="M299.44 818.59C299.38 818.66 299.32 818.73 299.27 818.8 299.22 818.87 299.17 818.94 299.12 819 299.27 818.9 299.44 818.81 299.63 818.75 299.82 818.69 300.01 818.66 300.23 818.66 300.49 818.66 300.74 818.7 300.97 818.79 301.2 818.87 301.4 819 301.58 819.16 301.75 819.32 301.89 819.52 301.99 819.76 302.09 820 302.14 820.27 302.14 820.58 302.14 820.89 302.09 821.15 301.98 821.41 301.87 821.66 301.72 821.89 301.53 822.08 301.34 822.27 301.1 822.42 300.83 822.53 300.56 822.64 300.26 822.69 299.93 822.69 299.6 822.69 299.31 822.64 299.05 822.53 298.79 822.43 298.56 822.28 298.38 822.09 298.2 821.9 298.05 821.67 297.95 821.4 297.85 821.13 297.8 820.82 297.8 820.49 297.8 820.21 297.86 819.91 297.99 819.59 298.11 819.27 298.31 818.93 298.59 818.57L300.23 816.37C300.27 816.32 300.33 816.27 300.4 816.23 300.47 816.19 300.56 816.17 300.65 816.17L301.36 816.17 299.45 818.59ZM298.56 820.64C298.56 820.85 298.59 821.04 298.65 821.21 298.71 821.38 298.8 821.53 298.91 821.65 299.03 821.77 299.17 821.87 299.33 821.94 299.5 822.01 299.69 822.04 299.9 822.04 300.11 822.04 300.31 822 300.49 821.94 300.66 821.87 300.82 821.77 300.94 821.65 301.06 821.53 301.16 821.38 301.23 821.21 301.3 821.04 301.33 820.86 301.33 820.66 301.33 820.45 301.3 820.26 301.23 820.09 301.16 819.92 301.07 819.78 300.95 819.66 300.83 819.54 300.68 819.45 300.52 819.39 300.35 819.33 300.17 819.3 299.97 819.3 299.75 819.3 299.56 819.34 299.39 819.41 299.22 819.48 299.07 819.58 298.95 819.71 298.83 819.83 298.74 819.98 298.67 820.14 298.61 820.3 298.57 820.47 298.57 820.65Z" fill="#4D4D4D"/><path transform="translate(-10.3,0)" d="M317.91 819.41C317.91 819.97 317.85 820.46 317.73 820.87 317.61 821.28 317.44 821.62 317.23 821.89 317.02 822.16 316.77 822.36 316.49 822.49 316.2 822.62 315.9 822.69 315.57 822.69 315.24 822.69 314.93 822.62 314.65 822.49 314.37 822.36 314.12 822.16 313.91 821.89 313.7 821.62 313.53 821.28 313.41 820.87 313.29 820.46 313.23 819.97 313.23 819.41 313.23 818.85 313.29 818.36 313.41 817.94 313.53 817.53 313.7 817.18 313.91 816.91 314.12 816.64 314.37 816.44 314.65 816.3 314.93 816.16 315.24 816.1 315.57 816.1 315.9 816.1 316.2 816.17 316.49 816.3 316.78 816.43 317.02 816.63 317.23 816.91 317.44 817.19 317.61 817.52 317.73 817.94 317.85 818.35 317.91 818.84 317.91 819.41ZM317.08 819.41C317.08 818.92 317.04 818.5 316.96 818.17 316.88 817.84 316.77 817.57 316.63 817.36 316.49 817.15 316.33 817.01 316.15 816.92 315.97 816.83 315.78 816.79 315.58 816.79 315.38 816.79 315.19 816.83 315.01 816.92 314.83 817.01 314.67 817.15 314.53 817.36 314.39 817.57 314.28 817.83 314.2 818.17 314.12 818.5 314.08 818.92 314.08 819.41 314.08 819.9 314.12 820.31 314.2 820.65 314.28 820.98 314.39 821.25 314.53 821.46 314.67 821.67 314.83 821.81 315.01 821.9 315.19 821.99 315.38 822.03 315.58 822.03 315.78 822.03 315.97 821.99 316.15 821.9 316.33 821.81 316.49 821.67 316.63 821.46 316.77 821.25 316.88 820.99 316.96 820.65 317.04 820.32 317.08 819.9 317.08 819.41Z" fill="#4D4D4D"/><path transform="translate(-50.5,14)" xmlns="http://www.w3.org/2000/svg" d="M359.32 808.01 360.7 808.01 360.7 803.61C360.7 803.48 360.7 803.35 360.71 803.21L359.56 804.2C359.56 804.2 359.48 804.25 359.44 804.26 359.4 804.26 359.36 804.26 359.33 804.26 359.3 804.26 359.27 804.24 359.24 804.22 359.21 804.2 359.19 804.18 359.17 804.16L358.92 803.81 360.84 802.15 361.49 802.15 361.49 808 362.76 808 362.76 808.61 359.3 808.61 359.3 808Z" fill="#4D4D4D"/><path d="M317.91 819.41C317.91 819.97 317.85 820.46 317.73 820.87 317.61 821.28 317.44 821.62 317.23 821.89 317.02 822.16 316.77 822.36 316.49 822.49 316.2 822.62 315.9 822.69 315.57 822.69 315.24 822.69 314.93 822.62 314.65 822.49 314.37 822.36 314.12 822.16 313.91 821.89 313.7 821.62 313.53 821.28 313.41 820.87 313.29 820.46 313.23 819.97 313.23 819.41 313.23 818.85 313.29 818.36 313.41 817.94 313.53 817.53 313.7 817.18 313.91 816.91 314.12 816.64 314.37 816.44 314.65 816.3 314.93 816.16 315.24 816.1 315.57 816.1 315.9 816.1 316.2 816.17 316.49 816.3 316.78 816.43 317.02 816.63 317.23 816.91 317.44 817.19 317.61 817.52 317.73 817.94 317.85 818.35 317.91 818.84 317.91 819.41ZM317.08 819.41C317.08 818.92 317.04 818.5 316.96 818.17 316.88 817.84 316.77 817.57 316.63 817.36 316.49 817.15 316.33 817.01 316.15 816.92 315.97 816.83 315.78 816.79 315.58 816.79 315.38 816.79 315.19 816.83 315.01 816.92 314.83 817.01 314.67 817.15 314.53 817.36 314.39 817.57 314.28 817.83 314.2 818.17 314.12 818.5 314.08 818.92 314.08 819.41 314.08 819.9 314.12 820.31 314.2 820.65 314.28 820.98 314.39 821.25 314.53 821.46 314.67 821.67 314.83 821.81 315.01 821.9 315.19 821.99 315.38 822.03 315.58 822.03 315.78 822.03 315.97 821.99 316.15 821.9 316.33 821.81 316.49 821.67 316.63 821.46 316.77 821.25 316.88 820.99 316.96 820.65 317.04 820.32 317.08 819.9 317.08 819.41Z" fill="#4D4D4D"/><path d="M318.74 819.59 320.96 819.59 320.96 820.27 318.74 820.27 318.74 819.59Z" fill="#4D4D4D"/><path d="M326.48 819.41C326.48 819.97 326.42 820.46 326.3 820.87 326.18 821.28 326.01 821.62 325.8 821.89 325.59 822.16 325.34 822.36 325.06 822.49 324.77 822.62 324.47 822.69 324.14 822.69 323.81 822.69 323.5 822.62 323.22 822.49 322.94 822.36 322.69 822.16 322.48 821.89 322.27 821.62 322.1 821.28 321.98 820.87 321.86 820.46 321.8 819.97 321.8 819.41 321.8 818.85 321.86 818.36 321.98 817.94 322.1 817.53 322.27 817.18 322.48 816.91 322.69 816.64 322.94 816.44 323.22 816.3 323.5 816.16 323.81 816.1 324.14 816.1 324.47 816.1 324.77 816.17 325.06 816.3 325.35 816.43 325.59 816.63 325.8 816.91 326.01 817.19 326.18 817.52 326.3 817.94 326.42 818.35 326.48 818.84 326.48 819.41ZM325.64 819.41C325.64 818.92 325.6 818.5 325.52 818.17 325.44 817.84 325.33 817.57 325.19 817.36 325.05 817.15 324.89 817.01 324.71 816.92 324.53 816.83 324.34 816.79 324.14 816.79 323.94 816.79 323.75 816.83 323.57 816.92 323.39 817.01 323.23 817.15 323.09 817.36 322.95 817.57 322.84 817.83 322.76 818.17 322.68 818.5 322.64 818.92 322.64 819.41 322.64 819.9 322.68 820.31 322.76 820.65 322.84 820.98 322.95 821.25 323.09 821.46 323.23 821.67 323.39 821.81 323.57 821.9 323.75 821.99 323.94 822.03 324.14 822.03 324.34 822.03 324.53 821.99 324.71 821.9 324.89 821.81 325.05 821.67 325.19 821.46 325.33 821.25 325.44 820.99 325.52 820.65 325.6 820.32 325.64 819.9 325.64 819.41Z" fill="#4D4D4D"/><path transform="translate(29.4,-1.2) rotate(180 300,820)" d="M299.44 818.59C299.38 818.66 299.32 818.73 299.27 818.8 299.22 818.87 299.17 818.94 299.12 819 299.27 818.9 299.44 818.81 299.63 818.75 299.82 818.69 300.01 818.66 300.23 818.66 300.49 818.66 300.74 818.7 300.97 818.79 301.2 818.87 301.4 819 301.58 819.16 301.75 819.32 301.89 819.52 301.99 819.76 302.09 820 302.14 820.27 302.14 820.58 302.14 820.89 302.09 821.15 301.98 821.41 301.87 821.66 301.72 821.89 301.53 822.08 301.34 822.27 301.1 822.42 300.83 822.53 300.56 822.64 300.26 822.69 299.93 822.69 299.6 822.69 299.31 822.64 299.05 822.53 298.79 822.43 298.56 822.28 298.38 822.09 298.2 821.9 298.05 821.67 297.95 821.4 297.85 821.13 297.8 820.82 297.8 820.49 297.8 820.21 297.86 819.91 297.99 819.59 298.11 819.27 298.31 818.93 298.59 818.57L300.23 816.37C300.27 816.32 300.33 816.27 300.4 816.23 300.47 816.19 300.56 816.17 300.65 816.17L301.36 816.17 299.45 818.59ZM298.56 820.64C298.56 820.85 298.59 821.04 298.65 821.21 298.71 821.38 298.8 821.53 298.91 821.65 299.03 821.77 299.17 821.87 299.33 821.94 299.5 822.01 299.69 822.04 299.9 822.04 300.11 822.04 300.31 822 300.49 821.94 300.66 821.87 300.82 821.77 300.94 821.65 301.06 821.53 301.16 821.38 301.23 821.21 301.3 821.04 301.33 820.86 301.33 820.66 301.33 820.45 301.3 820.26 301.23 820.09 301.16 819.92 301.07 819.78 300.95 819.66 300.83 819.54 300.68 819.45 300.52 819.39 300.35 819.33 300.17 819.3 299.97 819.3 299.75 819.3 299.56 819.34 299.39 819.41 299.22 819.48 299.07 819.58 298.95 819.71 298.83 819.83 298.74 819.98 298.67 820.14 298.61 820.3 298.57 820.47 298.57 820.65Z" fill="#4D4D4D"/><path transform="translate(19,0)" d="M317.91 819.41C317.91 819.97 317.85 820.46 317.73 820.87 317.61 821.28 317.44 821.62 317.23 821.89 317.02 822.16 316.77 822.36 316.49 822.49 316.2 822.62 315.9 822.69 315.57 822.69 315.24 822.69 314.93 822.62 314.65 822.49 314.37 822.36 314.12 822.16 313.91 821.89 313.7 821.62 313.53 821.28 313.41 820.87 313.29 820.46 313.23 819.97 313.23 819.41 313.23 818.85 313.29 818.36 313.41 817.94 313.53 817.53 313.7 817.18 313.91 816.91 314.12 816.64 314.37 816.44 314.65 816.3 314.93 816.16 315.24 816.1 315.57 816.1 315.9 816.1 316.2 816.17 316.49 816.3 316.78 816.43 317.02 816.63 317.23 816.91 317.44 817.19 317.61 817.52 317.73 817.94 317.85 818.35 317.91 818.84 317.91 819.41ZM317.08 819.41C317.08 818.92 317.04 818.5 316.96 818.17 316.88 817.84 316.77 817.57 316.63 817.36 316.49 817.15 316.33 817.01 316.15 816.92 315.97 816.83 315.78 816.79 315.58 816.79 315.38 816.79 315.19 816.83 315.01 816.92 314.83 817.01 314.67 817.15 314.53 817.36 314.39 817.57 314.28 817.83 314.2 818.17 314.12 818.5 314.08 818.92 314.08 819.41 314.08 819.9 314.12 820.31 314.2 820.65 314.28 820.98 314.39 821.25 314.53 821.46 314.67 821.67 314.83 821.81 315.01 821.9 315.19 821.99 315.38 822.03 315.58 822.03 315.78 822.03 315.97 821.99 316.15 821.9 316.33 821.81 316.49 821.67 316.63 821.46 316.77 821.25 316.88 820.99 316.96 820.65 317.04 820.32 317.08 819.9 317.08 819.41Z" fill="#4D4D4D"/></g><g><path d="M283.14 798.4C284.32 798.4 285.39 798.88 286.16 799.65 286.93 800.42 287.41 801.49 287.41 802.67 287.41 803.17 287.32 803.65 287.16 804.1 287 804.56 286.76 804.98 286.45 805.35L283.39 809.63C283.3 809.76 283.12 809.79 282.99 809.7 282.96 809.68 282.93 809.65 282.91 809.62L279.67 805.18C279.67 805.18 279.67 805.18 279.67 805.17 279.41 804.81 279.21 804.42 279.07 803.99 278.93 803.57 278.86 803.13 278.86 802.67 278.86 801.49 279.34 800.43 280.11 799.65 280.88 798.88 281.95 798.4 283.13 798.4L283.13 798.4ZM285.75 800.07C285.08 799.4 284.16 798.99 283.14 798.99 282.12 798.99 281.2 799.4 280.53 800.07 279.86 800.74 279.45 801.66 279.45 802.67 279.45 803.07 279.51 803.45 279.63 803.81 279.75 804.17 279.92 804.51 280.14 804.82 280.15 804.83 280.16 804.85 280.17 804.87L283.16 808.97 285.99 805.01 285.99 805.01C285.99 805.01 285.99 805.01 286 805 286.26 804.68 286.47 804.31 286.61 803.91 286.75 803.53 286.82 803.11 286.82 802.68 286.82 801.66 286.41 800.74 285.74 800.08L285.74 800.08Z" fill="#4D4D4D"/><path d="M283.14 800.04C283.87 800.04 284.52 800.33 285 800.81 285.48 801.29 285.77 801.94 285.77 802.67 285.77 803.4 285.47 804.05 285 804.53 284.52 805.01 283.87 805.3 283.14 805.3 282.41 805.3 281.76 805.01 281.28 804.53 280.8 804.05 280.51 803.4 280.51 802.67 280.51 801.94 280.81 801.29 281.28 800.81 281.76 800.33 282.41 800.04 283.14 800.04L283.14 800.04ZM284.59 801.22C284.22 800.85 283.71 800.62 283.14 800.62 282.57 800.62 282.06 800.85 281.69 801.22 281.32 801.59 281.09 802.1 281.09 802.67 281.09 803.24 281.32 803.75 281.69 804.12 282.06 804.49 282.57 804.72 283.14 804.72 283.71 804.72 284.22 804.49 284.59 804.12 284.96 803.75 285.19 803.24 285.19 802.67 285.19 802.1 284.96 801.59 284.59 801.22L284.59 801.22Z" fill="#4D4D4D"/></g><g><path d="M139.88 808.08 140.95 808.08 140.95 804.66C140.95 804.56 140.95 804.46 140.96 804.35L140.07 805.12C140.07 805.12 140.01 805.16 139.98 805.17 139.95 805.18 139.92 805.17 139.9 805.17 139.87 805.17 139.85 805.16 139.83 805.14 139.81 805.13 139.79 805.11 139.78 805.1L139.58 804.83 141.07 803.54 141.58 803.54 141.58 808.09 142.57 808.09 142.57 808.57 139.88 808.57 139.88 808.09Z" fill="#4D4D4D"/><path d="M145.09 808.61C144.84 808.61 144.61 808.58 144.4 808.51 144.19 808.44 144.01 808.35 143.86 808.22 143.71 808.09 143.59 807.95 143.51 807.77 143.43 807.59 143.39 807.4 143.39 807.18 143.39 806.86 143.47 806.59 143.64 806.38 143.81 806.17 144.05 806.02 144.36 805.93 144.1 805.83 143.9 805.68 143.76 805.49 143.63 805.29 143.56 805.06 143.56 804.79 143.56 804.61 143.6 804.43 143.67 804.27 143.74 804.11 143.84 803.97 143.98 803.85 144.11 803.73 144.27 803.64 144.46 803.57 144.65 803.5 144.85 803.47 145.08 803.47 145.31 803.47 145.51 803.5 145.7 803.57 145.89 803.64 146.05 803.73 146.18 803.85 146.31 803.97 146.42 804.11 146.49 804.27 146.56 804.43 146.6 804.6 146.6 804.79 146.6 805.06 146.53 805.29 146.4 805.49 146.26 805.68 146.07 805.83 145.81 805.93 146.12 806.02 146.36 806.17 146.53 806.38 146.7 806.59 146.78 806.85 146.78 807.18 146.78 807.4 146.74 807.6 146.66 807.77 146.58 807.95 146.46 808.1 146.31 808.22 146.16 808.34 145.98 808.44 145.78 808.51 145.57 808.58 145.34 808.61 145.09 808.61ZM145.09 808.12C145.25 808.12 145.4 808.1 145.53 808.05 145.66 808 145.77 807.94 145.86 807.86 145.95 807.78 146.02 807.68 146.07 807.56 146.12 807.44 146.14 807.32 146.14 807.18 146.14 807.01 146.11 806.86 146.05 806.74 145.99 806.62 145.92 806.52 145.82 806.44 145.72 806.36 145.61 806.31 145.49 806.27 145.37 806.23 145.23 806.22 145.09 806.22 144.95 806.22 144.82 806.24 144.69 806.27 144.56 806.31 144.45 806.36 144.36 806.44 144.26 806.52 144.19 806.62 144.13 806.74 144.07 806.86 144.04 807.01 144.04 807.18 144.04 807.32 144.06 807.45 144.11 807.56 144.16 807.68 144.23 807.77 144.32 807.86 144.41 807.94 144.52 808.01 144.65 808.05 144.78 808.09 144.93 808.12 145.09 808.12ZM145.09 805.71C145.25 805.71 145.39 805.68 145.51 805.63 145.63 805.58 145.72 805.51 145.79 805.43 145.86 805.35 145.91 805.25 145.95 805.14 145.98 805.03 146 804.92 146 804.81 146 804.7 145.98 804.58 145.94 804.48 145.9 804.38 145.84 804.29 145.77 804.21 145.69 804.13 145.6 804.07 145.49 804.03 145.38 803.99 145.25 803.96 145.1 803.96 144.95 803.96 144.82 803.98 144.71 804.03 144.6 804.07 144.5 804.14 144.43 804.21 144.35 804.29 144.3 804.38 144.26 804.48 144.22 804.58 144.2 804.69 144.2 804.81 144.2 804.93 144.22 805.03 144.25 805.14 144.28 805.25 144.34 805.34 144.41 805.43 144.48 805.52 144.58 805.58 144.69 805.63 144.81 805.68 144.94 805.71 145.11 805.71Z" fill="#4D4D4D"/><path d="M152.12 802.04C152.39 802.04 152.64 802.08 152.88 802.16 153.12 802.24 153.31 802.35 153.48 802.49 153.65 802.63 153.78 802.81 153.87 803.01 153.96 803.21 154.01 803.44 154.01 803.69 154.01 803.89 153.98 804.08 153.93 804.24 153.88 804.4 153.8 804.54 153.7 804.66 153.6 804.78 153.48 804.88 153.35 804.97 153.21 805.05 153.06 805.12 152.89 805.17 153.31 805.28 153.63 805.47 153.84 805.73 154.05 805.99 154.16 806.32 154.16 806.71 154.16 807.01 154.1 807.27 153.99 807.51 153.88 807.75 153.72 807.95 153.53 808.12 153.34 808.29 153.11 808.41 152.85 808.5 152.59 808.59 152.31 808.63 152.02 808.63 151.68 808.63 151.39 808.59 151.14 808.5 150.9 808.42 150.69 808.3 150.52 808.15 150.35 808 150.21 807.82 150.11 807.62 150 807.41 149.91 807.19 149.84 806.95L150.19 806.81C150.28 806.77 150.37 806.76 150.45 806.78 150.54 806.8 150.6 806.85 150.64 806.93 150.68 807.01 150.73 807.11 150.79 807.23 150.85 807.35 150.93 807.46 151.03 807.57 151.13 807.68 151.26 807.77 151.42 807.84 151.58 807.92 151.78 807.95 152.02 807.95 152.25 807.95 152.44 807.91 152.61 807.84 152.78 807.77 152.92 807.67 153.03 807.55 153.14 807.43 153.23 807.3 153.28 807.16 153.34 807.02 153.37 806.87 153.37 806.73 153.37 806.56 153.35 806.4 153.3 806.25 153.26 806.11 153.17 805.98 153.05 805.88 152.93 805.78 152.76 805.69 152.54 805.63 152.33 805.57 152.05 805.54 151.71 805.54L151.71 804.96C151.99 804.96 152.22 804.93 152.41 804.87 152.6 804.81 152.76 804.74 152.88 804.64 153 804.54 153.09 804.42 153.15 804.28 153.21 804.14 153.23 803.99 153.23 803.82 153.23 803.63 153.2 803.47 153.14 803.33 153.08 803.19 153 803.08 152.9 802.99 152.8 802.9 152.68 802.83 152.54 802.79 152.4 802.75 152.25 802.72 152.09 802.72 151.93 802.72 151.78 802.74 151.64 802.79 151.5 802.84 151.38 802.9 151.27 802.99 151.16 803.07 151.07 803.18 151 803.29 150.93 803.41 150.88 803.54 150.85 803.68 150.81 803.79 150.76 803.85 150.7 803.89 150.64 803.93 150.56 803.93 150.45 803.92L150.03 803.85C150.07 803.56 150.15 803.3 150.27 803.07 150.39 802.84 150.54 802.65 150.73 802.5 150.91 802.35 151.13 802.23 151.36 802.15 151.6 802.07 151.86 802.03 152.13 802.03Z" fill="#4D4D4D"/><path d="M156.78 804.53C156.72 804.6 156.66 804.67 156.61 804.74 156.56 804.81 156.51 804.88 156.46 804.94 156.61 804.84 156.78 804.75 156.97 804.69 157.16 804.63 157.35 804.6 157.57 804.6 157.83 804.6 158.08 804.64 158.31 804.73 158.54 804.81 158.74 804.94 158.91 805.1 159.08 805.26 159.22 805.46 159.32 805.7 159.42 805.94 159.47 806.21 159.47 806.52 159.47 806.83 159.42 807.09 159.31 807.35 159.2 807.61 159.05 807.83 158.86 808.02 158.67 808.21 158.43 808.36 158.16 808.47 157.89 808.58 157.59 808.63 157.26 808.63 156.93 808.63 156.64 808.58 156.38 808.47 156.12 808.37 155.89 808.22 155.71 808.03 155.53 807.84 155.38 807.61 155.28 807.34 155.18 807.07 155.13 806.76 155.13 806.43 155.13 806.15 155.19 805.85 155.32 805.53 155.44 805.21 155.64 804.87 155.92 804.51L157.56 802.31C157.6 802.26 157.66 802.21 157.73 802.17 157.8 802.13 157.89 802.11 157.98 802.11L158.69 802.11 156.78 804.53ZM155.9 806.57C155.9 806.78 155.93 806.97 155.99 807.14 156.05 807.31 156.14 807.46 156.25 807.58 156.37 807.7 156.51 807.8 156.67 807.87 156.83 807.94 157.03 807.97 157.24 807.97 157.45 807.97 157.65 807.93 157.83 807.87 158.01 807.8 158.16 807.7 158.28 807.58 158.4 807.46 158.5 807.31 158.57 807.14 158.64 806.97 158.67 806.79 158.67 806.59 158.67 806.38 158.64 806.19 158.57 806.02 158.5 805.85 158.41 805.71 158.29 805.59 158.17 805.47 158.02 805.38 157.86 805.32 157.69 805.26 157.51 805.23 157.31 805.23 157.09 805.23 156.9 805.27 156.73 805.34 156.56 805.41 156.41 805.51 156.29 805.64 156.17 805.76 156.08 805.91 156.01 806.07 155.95 806.23 155.91 806.4 155.91 806.58Z" fill="#4D4D4D"/><path d="M162.56 802.04C162.83 802.04 163.08 802.08 163.32 802.16 163.56 802.24 163.75 802.35 163.92 802.49 164.09 802.63 164.22 802.81 164.31 803.01 164.4 803.21 164.45 803.44 164.45 803.69 164.45 803.89 164.42 804.08 164.37 804.24 164.32 804.4 164.24 804.54 164.14 804.66 164.04 804.78 163.92 804.88 163.79 804.97 163.65 805.05 163.5 805.12 163.33 805.17 163.75 805.28 164.07 805.47 164.28 805.73 164.49 805.99 164.6 806.32 164.6 806.71 164.6 807.01 164.54 807.27 164.43 807.51 164.32 807.75 164.16 807.95 163.97 808.12 163.78 808.29 163.55 808.41 163.29 808.5 163.03 808.59 162.75 808.63 162.46 808.63 162.12 808.63 161.83 808.59 161.58 808.5 161.34 808.42 161.13 808.3 160.96 808.15 160.79 808 160.65 807.82 160.55 807.62 160.44 807.41 160.35 807.19 160.28 806.95L160.63 806.81C160.72 806.77 160.81 806.76 160.89 806.78 160.98 806.8 161.04 806.85 161.08 806.93 161.12 807.01 161.17 807.11 161.23 807.23 161.29 807.35 161.37 807.46 161.47 807.57 161.57 807.68 161.7 807.77 161.86 807.84 162.02 807.92 162.22 807.95 162.46 807.95 162.69 807.95 162.88 807.91 163.05 807.84 163.22 807.77 163.36 807.67 163.47 807.55 163.58 807.43 163.67 807.3 163.72 807.16 163.78 807.02 163.81 806.87 163.81 806.73 163.81 806.56 163.79 806.4 163.74 806.25 163.7 806.11 163.61 805.98 163.49 805.88 163.37 805.78 163.2 805.69 162.98 805.63 162.77 805.57 162.49 805.54 162.15 805.54L162.15 804.96C162.43 804.96 162.66 804.93 162.85 804.87 163.04 804.81 163.2 804.74 163.32 804.64 163.44 804.54 163.53 804.42 163.59 804.28 163.65 804.14 163.67 803.99 163.67 803.82 163.67 803.63 163.64 803.47 163.58 803.33 163.52 803.19 163.44 803.08 163.34 802.99 163.24 802.9 163.12 802.83 162.98 802.79 162.84 802.75 162.69 802.72 162.53 802.72 162.37 802.72 162.22 802.74 162.08 802.79 161.94 802.84 161.82 802.9 161.71 802.99 161.6 803.07 161.51 803.18 161.44 803.29 161.37 803.41 161.32 803.54 161.29 803.68 161.25 803.79 161.2 803.85 161.14 803.89 161.08 803.93 161 803.93 160.89 803.92L160.47 803.85C160.51 803.56 160.59 803.3 160.71 803.07 160.83 802.84 160.98 802.65 161.17 802.5 161.35 802.35 161.57 802.23 161.8 802.15 162.04 802.07 162.3 802.03 162.57 802.03Z" fill="#4D4D4D"/><path d="M167.22 804.53C167.16 804.6 167.1 804.67 167.05 804.74 167 804.81 166.95 804.88 166.9 804.94 167.05 804.84 167.22 804.75 167.41 804.69 167.6 804.63 167.79 804.6 168.01 804.6 168.27 804.6 168.52 804.64 168.75 804.73 168.98 804.81 169.18 804.94 169.35 805.1 169.52 805.26 169.66 805.46 169.76 805.7 169.86 805.94 169.91 806.21 169.91 806.52 169.91 806.83 169.86 807.09 169.75 807.35 169.64 807.61 169.49 807.83 169.3 808.02 169.11 808.21 168.87 808.36 168.6 808.47 168.33 808.58 168.03 808.63 167.7 808.63 167.37 808.63 167.08 808.58 166.82 808.47 166.56 808.37 166.33 808.22 166.15 808.03 165.97 807.84 165.82 807.61 165.72 807.34 165.62 807.07 165.57 806.76 165.57 806.43 165.57 806.15 165.63 805.85 165.76 805.53 165.88 805.21 166.08 804.87 166.36 804.51L168 802.31C168.04 802.26 168.1 802.21 168.17 802.17 168.24 802.13 168.33 802.11 168.42 802.11L169.13 802.11 167.22 804.53ZM166.34 806.57C166.34 806.78 166.37 806.97 166.43 807.14 166.49 807.31 166.58 807.46 166.69 807.58 166.81 807.7 166.95 807.8 167.11 807.87 167.27 807.94 167.47 807.97 167.68 807.97 167.89 807.97 168.09 807.93 168.27 807.87 168.45 807.8 168.6 807.7 168.72 807.58 168.84 807.46 168.94 807.31 169.01 807.14 169.08 806.97 169.11 806.79 169.11 806.59 169.11 806.38 169.08 806.19 169.01 806.02 168.94 805.85 168.85 805.71 168.73 805.59 168.61 805.47 168.46 805.38 168.3 805.32 168.13 805.26 167.95 805.23 167.75 805.23 167.53 805.23 167.34 805.27 167.17 805.34 167 805.41 166.85 805.51 166.73 805.64 166.61 805.76 166.52 805.91 166.45 806.07 166.39 806.23 166.35 806.4 166.35 806.58Z" fill="#4D4D4D"/><path d="M170.87 805.52 173.09 805.52 173.09 806.2 170.87 806.2 170.87 805.52Z" fill="#4D4D4D"/><path d="M174.78 807.95 176.16 807.95 176.16 803.55C176.16 803.42 176.16 803.29 176.17 803.15L175.02 804.14C175.02 804.14 174.94 804.19 174.9 804.2 174.86 804.2 174.83 804.2 174.79 804.2 174.75 804.2 174.73 804.18 174.7 804.16 174.67 804.14 174.65 804.12 174.64 804.1L174.39 803.75 176.31 802.09 176.96 802.09 176.96 807.94 178.23 807.94 178.23 808.55 174.77 808.55 174.77 807.94Z" fill="#4D4D4D"/><path d="M181.53 802.04C181.8 802.04 182.06 802.08 182.29 802.16 182.53 802.24 182.73 802.36 182.91 802.51 183.09 802.66 183.22 802.85 183.32 803.07 183.42 803.29 183.47 803.54 183.47 803.83 183.47 804.07 183.43 804.29 183.36 804.5 183.29 804.71 183.19 804.9 183.07 805.09 182.95 805.28 182.8 805.46 182.64 805.63 182.48 805.81 182.31 805.99 182.13 806.17L180.43 807.91C180.55 807.88 180.67 807.85 180.79 807.83 180.91 807.81 181.03 807.8 181.15 807.8L183.31 807.8C183.4 807.8 183.47 807.83 183.52 807.88 183.57 807.93 183.6 808 183.6 808.08L183.6 808.57 179.3 808.57 179.3 808.3C179.3 808.24 179.31 808.18 179.34 808.12 179.36 808.06 179.4 808 179.45 807.95L181.52 805.87C181.69 805.7 181.85 805.53 181.99 805.37 182.13 805.21 182.25 805.05 182.35 804.89 182.45 804.73 182.53 804.56 182.58 804.4 182.63 804.23 182.66 804.06 182.66 803.87 182.66 803.68 182.63 803.51 182.57 803.37 182.51 803.23 182.43 803.11 182.32 803.02 182.21 802.93 182.09 802.86 181.95 802.81 181.81 802.76 181.66 802.74 181.5 802.74 181.34 802.74 181.18 802.76 181.05 802.81 180.91 802.86 180.79 802.92 180.68 803.01 180.57 803.09 180.48 803.2 180.41 803.31 180.34 803.43 180.29 803.56 180.26 803.7 180.22 803.81 180.18 803.87 180.11 803.91 180.05 803.95 179.96 803.95 179.85 803.94L179.43 803.87C179.47 803.58 179.55 803.32 179.68 803.09 179.81 802.86 179.95 802.67 180.14 802.52 180.32 802.37 180.54 802.25 180.77 802.17 181.01 802.09 181.26 802.05 181.54 802.05Z" fill="#4D4D4D"/><path d="M186.22 804.53C186.16 804.6 186.1 804.67 186.05 804.74 186 804.81 185.95 804.88 185.9 804.94 186.05 804.84 186.22 804.75 186.41 804.69 186.6 804.63 186.79 804.6 187.01 804.6 187.27 804.6 187.52 804.64 187.75 804.73 187.98 804.81 188.18 804.94 188.35 805.1 188.52 805.26 188.66 805.46 188.76 805.7 188.86 805.94 188.91 806.21 188.91 806.52 188.91 806.83 188.86 807.09 188.75 807.35 188.64 807.61 188.49 807.83 188.3 808.02 188.11 808.21 187.87 808.36 187.6 808.47 187.33 808.58 187.03 808.63 186.7 808.63 186.37 808.63 186.08 808.58 185.82 808.47 185.56 808.37 185.33 808.22 185.15 808.03 184.97 807.84 184.82 807.61 184.72 807.34 184.62 807.07 184.57 806.76 184.57 806.43 184.57 806.15 184.63 805.85 184.76 805.53 184.88 805.21 185.08 804.87 185.36 804.51L187 802.31C187.04 802.26 187.1 802.21 187.17 802.17 187.24 802.13 187.33 802.11 187.42 802.11L188.13 802.11 186.22 804.53ZM185.35 806.57C185.35 806.78 185.38 806.97 185.44 807.14 185.5 807.31 185.59 807.46 185.7 807.58 185.82 807.7 185.96 807.8 186.12 807.87 186.28 807.94 186.48 807.97 186.69 807.97 186.9 807.97 187.1 807.93 187.28 807.87 187.46 807.8 187.61 807.7 187.73 807.58 187.85 807.46 187.95 807.31 188.02 807.14 188.09 806.97 188.12 806.79 188.12 806.59 188.12 806.38 188.09 806.19 188.02 806.02 187.95 805.85 187.86 805.71 187.74 805.59 187.62 805.47 187.47 805.38 187.31 805.32 187.14 805.26 186.96 805.23 186.76 805.23 186.54 805.23 186.35 805.27 186.18 805.34 186.01 805.41 185.86 805.51 185.74 805.64 185.62 805.76 185.53 805.91 185.46 806.07 185.4 806.23 185.36 806.4 185.36 806.58Z" fill="#4D4D4D"/><path d="M194.26 805.34C194.26 805.9 194.2 806.39 194.08 806.8 193.96 807.21 193.79 807.55 193.58 807.82 193.37 808.09 193.12 808.29 192.84 808.42 192.55 808.55 192.25 808.62 191.92 808.62 191.59 808.62 191.28 808.55 191 808.42 190.72 808.29 190.47 808.09 190.26 807.82 190.05 807.55 189.88 807.21 189.77 806.8 189.65 806.39 189.59 805.9 189.59 805.34 189.59 804.78 189.65 804.29 189.77 803.87 189.89 803.46 190.05 803.11 190.26 802.84 190.47 802.57 190.72 802.37 191 802.23 191.28 802.1 191.59 802.03 191.92 802.03 192.25 802.03 192.55 802.1 192.84 802.23 193.13 802.36 193.37 802.56 193.58 802.84 193.79 803.12 193.96 803.45 194.08 803.87 194.2 804.28 194.26 804.77 194.26 805.34ZM193.43 805.34C193.43 804.85 193.39 804.43 193.31 804.1 193.23 803.77 193.12 803.5 192.98 803.29 192.84 803.09 192.68 802.94 192.5 802.85 192.32 802.76 192.13 802.72 191.93 802.72 191.73 802.72 191.54 802.76 191.36 802.85 191.18 802.94 191.02 803.08 190.88 803.29 190.74 803.49 190.63 803.76 190.55 804.1 190.47 804.43 190.43 804.85 190.43 805.34 190.43 805.83 190.47 806.24 190.55 806.58 190.63 806.92 190.74 807.18 190.88 807.39 191.02 807.59 191.18 807.74 191.36 807.83 191.54 807.92 191.73 807.96 191.93 807.96 192.13 807.96 192.32 807.92 192.5 807.83 192.68 807.74 192.84 807.6 192.98 807.39 193.12 807.19 193.23 806.92 193.31 806.58 193.39 806.24 193.43 805.83 193.43 805.34Z" fill="#4D4D4D"/><path d="M142.54 822.56C142.46 822.56 142.4 822.55 142.36 822.52 142.32 822.49 142.28 822.44 142.26 822.37L142.17 821.94C142.05 822.05 141.93 822.14 141.82 822.23 141.7 822.31 141.58 822.39 141.46 822.45 141.34 822.51 141.2 822.55 141.06 822.58 140.92 822.61 140.76 822.63 140.59 822.63 140.42 822.63 140.25 822.6 140.09 822.56 139.93 822.51 139.8 822.44 139.68 822.34 139.56 822.24 139.47 822.12 139.41 821.96 139.34 821.81 139.31 821.63 139.31 821.42 139.31 821.24 139.36 821.07 139.46 820.9 139.56 820.73 139.72 820.59 139.94 820.46 140.16 820.33 140.45 820.23 140.81 820.14 141.17 820.06 141.6 820.01 142.12 820L142.12 819.64C142.12 819.29 142.04 819.02 141.89 818.84 141.74 818.66 141.51 818.57 141.22 818.57 141.02 818.57 140.86 818.59 140.72 818.64 140.59 818.69 140.47 818.74 140.37 818.81 140.27 818.87 140.19 818.93 140.12 818.98 140.05 819.03 139.98 819.05 139.91 819.05 139.86 819.05 139.81 819.04 139.77 819.01 139.73 818.98 139.7 818.95 139.67 818.9L139.53 818.64C139.78 818.4 140.05 818.22 140.34 818.1 140.63 817.98 140.95 817.92 141.31 817.92 141.57 817.92 141.79 817.96 141.99 818.05 142.19 818.13 142.35 818.25 142.49 818.4 142.62 818.55 142.73 818.73 142.8 818.94 142.87 819.15 142.9 819.39 142.9 819.64L142.9 822.56 142.54 822.56ZM140.82 822.07C140.96 822.07 141.09 822.06 141.21 822.03 141.33 822 141.44 821.96 141.54 821.91 141.64 821.86 141.74 821.79 141.84 821.72 141.93 821.64 142.03 821.56 142.12 821.46L142.12 820.52C141.75 820.53 141.44 820.56 141.18 820.61 140.92 820.66 140.71 820.72 140.55 820.79 140.39 820.86 140.27 820.95 140.19 821.06 140.12 821.16 140.08 821.28 140.08 821.4 140.08 821.52 140.1 821.62 140.14 821.71 140.18 821.8 140.23 821.87 140.3 821.92 140.37 821.97 140.45 822.02 140.54 822.04 140.63 822.07 140.73 822.08 140.83 822.08Z" fill="#4D4D4D"/><path d="M144.11 822.56 144.11 818 144.57 818C144.66 818 144.72 818.02 144.75 818.05 144.78 818.08 144.81 818.14 144.82 818.22L144.87 818.91C145.01 818.6 145.19 818.35 145.4 818.18 145.61 818 145.87 817.92 146.17 817.92 146.27 817.92 146.36 817.93 146.45 817.95 146.54 817.97 146.62 818 146.69 818.05L146.63 818.65C146.61 818.72 146.57 818.76 146.5 818.76 146.46 818.76 146.4 818.76 146.32 818.73 146.24 818.71 146.15 818.7 146.05 818.7 145.91 818.7 145.78 818.72 145.66 818.76 145.55 818.8 145.44 818.87 145.36 818.95 145.27 819.03 145.19 819.13 145.12 819.25 145.05 819.37 144.99 819.51 144.93 819.66L144.93 822.54 144.12 822.54Z" fill="#4D4D4D"/><path d="M150.21 822.56C150.13 822.56 150.07 822.55 150.03 822.52 149.99 822.49 149.95 822.44 149.93 822.37L149.84 821.94C149.72 822.05 149.6 822.14 149.49 822.23 149.37 822.31 149.25 822.39 149.13 822.45 149.01 822.51 148.87 822.55 148.73 822.58 148.59 822.61 148.43 822.63 148.26 822.63 148.09 822.63 147.92 822.6 147.76 822.56 147.6 822.51 147.47 822.44 147.35 822.34 147.23 822.24 147.14 822.12 147.08 821.96 147.01 821.81 146.98 821.63 146.98 821.42 146.98 821.24 147.03 821.07 147.13 820.9 147.23 820.73 147.39 820.59 147.61 820.46 147.83 820.33 148.12 820.23 148.48 820.14 148.84 820.06 149.27 820.01 149.79 820L149.79 819.64C149.79 819.29 149.71 819.02 149.56 818.84 149.41 818.66 149.18 818.57 148.89 818.57 148.69 818.57 148.53 818.59 148.39 818.64 148.26 818.69 148.14 818.74 148.04 818.81 147.94 818.87 147.86 818.93 147.79 818.98 147.72 819.03 147.65 819.05 147.58 819.05 147.53 819.05 147.48 819.04 147.44 819.01 147.4 818.98 147.37 818.95 147.34 818.9L147.2 818.64C147.45 818.4 147.72 818.22 148.01 818.1 148.3 817.98 148.62 817.92 148.98 817.92 149.24 817.92 149.46 817.96 149.66 818.05 149.86 818.13 150.02 818.25 150.16 818.4 150.29 818.55 150.4 818.73 150.47 818.94 150.54 819.15 150.57 819.39 150.57 819.64L150.57 822.56 150.21 822.56ZM148.49 822.07C148.63 822.07 148.76 822.06 148.88 822.03 149 822 149.11 821.96 149.21 821.91 149.31 821.86 149.41 821.79 149.51 821.72 149.6 821.64 149.7 821.56 149.79 821.46L149.79 820.52C149.42 820.53 149.11 820.56 148.85 820.61 148.59 820.66 148.38 820.72 148.22 820.79 148.06 820.86 147.94 820.95 147.86 821.06 147.79 821.16 147.75 821.28 147.75 821.4 147.75 821.52 147.77 821.62 147.81 821.71 147.85 821.8 147.9 821.87 147.97 821.92 148.04 821.97 148.12 822.02 148.21 822.04 148.3 822.07 148.4 822.08 148.5 822.08Z" fill="#4D4D4D"/><path d="M154.96 818.81C154.96 818.81 154.91 818.87 154.89 818.89 154.87 818.91 154.83 818.92 154.79 818.92 154.74 818.92 154.7 818.9 154.64 818.86 154.59 818.82 154.52 818.78 154.44 818.74 154.36 818.7 154.26 818.65 154.15 818.62 154.03 818.58 153.89 818.56 153.72 818.56 153.5 818.56 153.3 818.6 153.13 818.68 152.96 818.76 152.82 818.87 152.7 819.02 152.58 819.17 152.5 819.35 152.44 819.56 152.38 819.77 152.35 820.01 152.35 820.28 152.35 820.55 152.38 820.8 152.44 821.02 152.5 821.23 152.59 821.41 152.71 821.56 152.83 821.71 152.96 821.82 153.13 821.89 153.3 821.96 153.48 822.01 153.68 822.01 153.88 822.01 154.04 821.99 154.16 821.94 154.29 821.89 154.39 821.84 154.47 821.78 154.55 821.72 154.62 821.67 154.68 821.62 154.74 821.57 154.79 821.55 154.84 821.55 154.91 821.55 154.96 821.58 154.99 821.63L155.21 821.92C155.11 822.04 155 822.15 154.87 822.23 154.74 822.31 154.61 822.39 154.46 822.45 154.31 822.51 154.16 822.55 154 822.58 153.84 822.61 153.68 822.62 153.51 822.62 153.23 822.62 152.96 822.57 152.72 822.46 152.48 822.36 152.26 822.2 152.08 822 151.9 821.8 151.76 821.55 151.66 821.26 151.56 820.97 151.51 820.64 151.51 820.27 151.51 819.93 151.56 819.62 151.65 819.33 151.74 819.04 151.88 818.79 152.06 818.58 152.24 818.37 152.47 818.21 152.73 818.09 153 817.97 153.3 817.91 153.65 817.91 153.97 817.91 154.25 817.96 154.5 818.07 154.75 818.18 154.96 818.32 155.15 818.51L154.94 818.8Z" fill="#4D4D4D"/><path d="M158.98 822.56C158.9 822.56 158.84 822.55 158.8 822.52 158.76 822.49 158.72 822.44 158.7 822.37L158.61 821.94C158.49 822.05 158.37 822.14 158.26 822.23 158.14 822.31 158.02 822.39 157.9 822.45 157.78 822.51 157.64 822.55 157.5 822.58 157.36 822.61 157.2 822.63 157.03 822.63 156.86 822.63 156.69 822.6 156.53 822.56 156.37 822.51 156.24 822.44 156.12 822.34 156 822.24 155.91 822.12 155.85 821.96 155.78 821.81 155.75 821.63 155.75 821.42 155.75 821.24 155.8 821.07 155.9 820.9 156 820.73 156.16 820.59 156.38 820.46 156.6 820.33 156.89 820.23 157.25 820.14 157.61 820.06 158.04 820.01 158.56 820L158.56 819.64C158.56 819.29 158.48 819.02 158.33 818.84 158.18 818.66 157.95 818.57 157.66 818.57 157.46 818.57 157.3 818.59 157.16 818.64 157.03 818.69 156.91 818.74 156.81 818.81 156.71 818.87 156.63 818.93 156.56 818.98 156.49 819.03 156.42 819.05 156.35 819.05 156.3 819.05 156.25 819.04 156.21 819.01 156.17 818.98 156.14 818.95 156.11 818.9L155.97 818.64C156.22 818.4 156.49 818.22 156.78 818.1 157.07 817.98 157.39 817.92 157.75 817.92 158.01 817.92 158.23 817.96 158.43 818.05 158.63 818.13 158.79 818.25 158.93 818.4 159.06 818.55 159.17 818.73 159.24 818.94 159.31 819.15 159.34 819.39 159.34 819.64L159.34 822.56 158.98 822.56ZM157.26 822.07C157.4 822.07 157.53 822.06 157.65 822.03 157.77 822 157.88 821.96 157.98 821.91 158.08 821.86 158.18 821.79 158.28 821.72 158.37 821.64 158.47 821.56 158.56 821.46L158.56 820.52C158.19 820.53 157.88 820.56 157.62 820.61 157.36 820.66 157.15 820.72 156.99 820.79 156.83 820.86 156.71 820.95 156.63 821.06 156.56 821.16 156.52 821.28 156.52 821.4 156.52 821.52 156.54 821.62 156.58 821.71 156.62 821.8 156.67 821.87 156.74 821.92 156.81 821.97 156.89 822.02 156.98 822.04 157.07 822.07 157.17 822.08 157.27 822.08Z" fill="#4D4D4D"/><path d="M161.9 822.63C161.54 822.63 161.26 822.53 161.07 822.33 160.88 822.13 160.78 821.84 160.78 821.46L160.78 818.67 160.23 818.67C160.23 818.67 160.14 818.66 160.11 818.63 160.08 818.6 160.06 818.56 160.06 818.5L160.06 818.18 160.81 818.09 160.99 816.68C160.99 816.68 161.02 816.6 161.05 816.57 161.08 816.54 161.12 816.53 161.17 816.53L161.57 816.53 161.57 818.1 162.89 818.1 162.89 818.68 161.57 818.68 161.57 821.42C161.57 821.61 161.62 821.75 161.71 821.85 161.8 821.94 161.92 821.99 162.07 821.99 162.15 821.99 162.23 821.98 162.29 821.96 162.35 821.94 162.4 821.91 162.45 821.89 162.5 821.86 162.53 821.84 162.56 821.82 162.59 821.8 162.62 821.79 162.64 821.79 162.68 821.79 162.72 821.82 162.75 821.87L162.98 822.25C162.84 822.38 162.68 822.48 162.48 822.55 162.28 822.62 162.08 822.66 161.88 822.66Z" fill="#4D4D4D"/><path d="M164.48 818 164.48 820.91C164.48 821.25 164.56 821.52 164.72 821.71 164.88 821.9 165.12 821.99 165.44 821.99 165.67 821.99 165.89 821.94 166.1 821.82 166.31 821.71 166.5 821.55 166.67 821.36L166.67 818 167.47 818 167.47 822.56 166.99 822.56C166.88 822.56 166.8 822.5 166.77 822.39L166.71 821.9C166.51 822.12 166.29 822.3 166.04 822.43 165.79 822.56 165.51 822.63 165.19 822.63 164.94 822.63 164.72 822.59 164.53 822.51 164.34 822.43 164.18 822.31 164.05 822.16 163.92 822.01 163.82 821.83 163.76 821.62 163.7 821.41 163.66 821.17 163.66 820.91L163.66 818 164.46 818Z" fill="#4D4D4D"/><path d="M168.74 822.56 168.74 815.93 169.55 815.93 169.55 818.66C169.74 818.44 169.96 818.26 170.2 818.12 170.44 817.99 170.72 817.92 171.04 817.92 171.31 817.92 171.55 817.97 171.76 818.07 171.97 818.17 172.16 818.32 172.31 818.51 172.46 818.7 172.57 818.94 172.65 819.21 172.73 819.48 172.77 819.8 172.77 820.14 172.77 820.51 172.72 820.85 172.63 821.15 172.54 821.45 172.41 821.71 172.24 821.93 172.07 822.15 171.86 822.31 171.62 822.43 171.38 822.55 171.1 822.61 170.8 822.61 170.5 822.61 170.25 822.55 170.04 822.44 169.83 822.33 169.66 822.17 169.5 821.96L169.46 822.37C169.44 822.48 169.37 822.54 169.25 822.54L168.73 822.54ZM170.77 818.57C170.51 818.57 170.28 818.63 170.09 818.75 169.89 818.87 169.72 819.04 169.55 819.26L169.55 821.47C169.7 821.67 169.86 821.81 170.03 821.89 170.21 821.97 170.4 822.01 170.61 822.01 171.04 822.01 171.37 821.86 171.6 821.55 171.83 821.25 171.94 820.8 171.94 820.2 171.94 819.64 171.84 819.23 171.64 818.97 171.44 818.71 171.15 818.58 170.77 818.58Z" fill="#4D4D4D"/><path d="M176.68 822.56C176.6 822.56 176.54 822.55 176.5 822.52 176.46 822.49 176.42 822.44 176.4 822.37L176.31 821.94C176.19 822.05 176.07 822.14 175.96 822.23 175.84 822.31 175.72 822.39 175.6 822.45 175.48 822.51 175.34 822.55 175.2 822.58 175.06 822.61 174.9 822.63 174.73 822.63 174.56 822.63 174.39 822.6 174.23 822.56 174.07 822.51 173.94 822.44 173.82 822.34 173.7 822.24 173.61 822.12 173.55 821.96 173.48 821.81 173.45 821.63 173.45 821.42 173.45 821.24 173.5 821.07 173.6 820.9 173.7 820.73 173.86 820.59 174.08 820.46 174.3 820.33 174.59 820.23 174.95 820.14 175.31 820.06 175.74 820.01 176.26 820L176.26 819.64C176.26 819.29 176.18 819.02 176.03 818.84 175.88 818.66 175.65 818.57 175.36 818.57 175.16 818.57 175 818.59 174.86 818.64 174.73 818.69 174.61 818.74 174.51 818.81 174.41 818.87 174.33 818.93 174.26 818.98 174.19 819.03 174.12 819.05 174.05 819.05 174 819.05 173.95 819.04 173.91 819.01 173.87 818.98 173.84 818.95 173.81 818.9L173.67 818.64C173.92 818.4 174.19 818.22 174.48 818.1 174.77 817.98 175.09 817.92 175.45 817.92 175.71 817.92 175.93 817.96 176.13 818.05 176.33 818.13 176.49 818.25 176.63 818.4 176.76 818.55 176.87 818.73 176.94 818.94 177.01 819.15 177.04 819.39 177.04 819.64L177.04 822.56 176.68 822.56ZM174.96 822.07C175.1 822.07 175.23 822.06 175.35 822.03 175.47 822 175.58 821.96 175.68 821.91 175.78 821.86 175.88 821.79 175.98 821.72 176.07 821.64 176.17 821.56 176.26 821.46L176.26 820.52C175.89 820.53 175.58 820.56 175.32 820.61 175.06 820.66 174.85 820.72 174.69 820.79 174.53 820.86 174.41 820.95 174.33 821.06 174.26 821.16 174.22 821.28 174.22 821.4 174.22 821.52 174.24 821.62 174.28 821.71 174.32 821.8 174.37 821.87 174.44 821.92 174.51 821.97 174.59 822.02 174.68 822.04 174.77 822.07 174.87 822.08 174.97 822.08Z" fill="#4D4D4D"/><path d="M178.12 822.06C178.12 821.98 178.13 821.91 178.16 821.84 178.19 821.77 178.23 821.71 178.28 821.66 178.33 821.61 178.39 821.57 178.46 821.54 178.53 821.51 178.6 821.5 178.68 821.5 178.76 821.5 178.83 821.51 178.9 821.54 178.97 821.57 179.03 821.61 179.08 821.66 179.13 821.71 179.17 821.77 179.2 821.84 179.23 821.91 179.24 821.98 179.24 822.06 179.24 822.14 179.22 822.22 179.2 822.28 179.17 822.35 179.13 822.41 179.08 822.46 179.03 822.51 178.97 822.55 178.9 822.58 178.83 822.61 178.76 822.62 178.68 822.62 178.6 822.62 178.53 822.61 178.46 822.58 178.39 822.55 178.33 822.51 178.28 822.46 178.23 822.41 178.19 822.35 178.16 822.28 178.13 822.21 178.12 822.14 178.12 822.06Z" fill="#4D4D4D"/><path d="M183.04 818.75C183 818.82 182.95 818.85 182.87 818.85 182.83 818.85 182.77 818.83 182.72 818.8 182.66 818.77 182.59 818.73 182.51 818.69 182.43 818.65 182.33 818.61 182.22 818.58 182.11 818.55 181.97 818.53 181.82 818.53 181.68 818.53 181.56 818.55 181.46 818.58 181.35 818.62 181.26 818.66 181.18 818.72 181.1 818.78 181.04 818.85 181 818.93 180.96 819.01 180.94 819.1 180.94 819.19 180.94 819.31 180.97 819.4 181.04 819.48 181.11 819.56 181.2 819.63 181.31 819.68 181.42 819.74 181.55 819.79 181.69 819.83 181.83 819.87 181.98 819.92 182.12 819.97 182.27 820.02 182.41 820.07 182.55 820.13 182.69 820.19 182.82 820.26 182.93 820.35 183.04 820.44 183.13 820.55 183.2 820.68 183.27 820.81 183.3 820.97 183.3 821.15 183.3 821.36 183.26 821.55 183.19 821.73 183.11 821.91 183 822.06 182.86 822.19 182.72 822.32 182.53 822.42 182.32 822.5 182.11 822.57 181.86 822.61 181.58 822.61 181.26 822.61 180.97 822.56 180.72 822.45 180.47 822.34 180.24 822.21 180.06 822.05L180.25 821.74C180.25 821.74 180.3 821.67 180.34 821.65 180.37 821.63 180.41 821.62 180.47 821.62 180.53 821.62 180.58 821.64 180.64 821.68 180.7 821.72 180.77 821.77 180.86 821.82 180.95 821.87 181.05 821.92 181.17 821.96 181.29 822 181.45 822.02 181.63 822.02 181.79 822.02 181.92 822 182.04 821.96 182.16 821.92 182.25 821.86 182.33 821.8 182.41 821.73 182.47 821.65 182.5 821.56 182.53 821.47 182.56 821.37 182.56 821.27 182.56 821.14 182.53 821.04 182.46 820.96 182.39 820.88 182.3 820.81 182.19 820.75 182.08 820.69 181.95 820.64 181.81 820.6 181.67 820.56 181.52 820.51 181.37 820.46 181.22 820.41 181.08 820.36 180.93 820.3 180.78 820.24 180.66 820.16 180.55 820.07 180.44 819.98 180.35 819.86 180.28 819.73 180.21 819.59 180.18 819.43 180.18 819.23 180.18 819.06 180.22 818.89 180.29 818.73 180.36 818.57 180.47 818.43 180.61 818.31 180.75 818.19 180.92 818.09 181.12 818.02 181.32 817.95 181.55 817.91 181.81 817.91 182.11 817.91 182.38 817.96 182.62 818.05 182.86 818.14 183.06 818.27 183.24 818.44L183.06 818.73Z" fill="#4D4D4D"/><path d="M184.28 824.1 184.28 818 184.76 818C184.87 818 184.94 818.06 184.97 818.17L185.04 818.71C185.23 818.47 185.46 818.28 185.71 818.14 185.96 818 186.25 817.92 186.57 817.92 186.83 817.92 187.07 817.97 187.29 818.07 187.5 818.17 187.68 818.32 187.83 818.52 187.98 818.72 188.1 818.96 188.18 819.25 188.26 819.54 188.3 819.87 188.3 820.25 188.3 820.59 188.25 820.9 188.16 821.19 188.07 821.48 187.94 821.73 187.77 821.94 187.6 822.15 187.39 822.32 187.15 822.44 186.91 822.56 186.63 822.62 186.32 822.62 186.04 822.62 185.8 822.57 185.6 822.48 185.4 822.39 185.22 822.25 185.07 822.08L185.07 824.1 184.26 824.1ZM186.31 818.57C186.05 818.57 185.82 818.63 185.62 818.75 185.42 818.87 185.24 819.04 185.08 819.26L185.08 821.47C185.22 821.67 185.38 821.81 185.56 821.89 185.74 821.97 185.93 822.01 186.15 822.01 186.58 822.01 186.9 821.86 187.13 821.55 187.36 821.25 187.47 820.82 187.47 820.25 187.47 819.95 187.44 819.7 187.39 819.49 187.34 819.28 187.26 819.1 187.16 818.97 187.06 818.84 186.94 818.73 186.8 818.67 186.66 818.61 186.49 818.58 186.31 818.58Z" fill="#4D4D4D"/><path d="M189.19 822.06C189.19 821.98 189.2 821.91 189.23 821.84 189.26 821.77 189.3 821.71 189.35 821.66 189.4 821.61 189.46 821.57 189.53 821.54 189.6 821.51 189.67 821.5 189.75 821.5 189.83 821.5 189.9 821.51 189.97 821.54 190.04 821.57 190.1 821.61 190.15 821.66 190.2 821.71 190.24 821.77 190.27 821.84 190.3 821.91 190.31 821.98 190.31 822.06 190.31 822.14 190.29 822.22 190.27 822.28 190.24 822.35 190.2 822.41 190.15 822.46 190.1 822.51 190.04 822.55 189.97 822.58 189.9 822.61 189.83 822.62 189.75 822.62 189.67 822.62 189.6 822.61 189.53 822.58 189.46 822.55 189.4 822.51 189.35 822.46 189.3 822.41 189.26 822.35 189.23 822.28 189.2 822.21 189.19 822.14 189.19 822.06Z" fill="#4D4D4D"/><path d="M193.04 817.92C193.24 817.92 193.42 817.94 193.59 817.99 193.76 818.03 193.92 818.1 194.06 818.18L195.3 818.18 195.3 818.48C195.3 818.58 195.24 818.64 195.11 818.67L194.59 818.74C194.69 818.94 194.74 819.15 194.74 819.39 194.74 819.61 194.7 819.81 194.61 820 194.52 820.18 194.41 820.34 194.26 820.47 194.11 820.6 193.93 820.7 193.72 820.77 193.51 820.84 193.28 820.87 193.04 820.87 192.82 820.87 192.62 820.84 192.43 820.79 192.33 820.85 192.26 820.91 192.21 820.98 192.16 821.05 192.14 821.12 192.14 821.18 192.14 821.29 192.18 821.37 192.27 821.43 192.36 821.49 192.48 821.53 192.62 821.55 192.76 821.57 192.93 821.59 193.11 821.59 193.29 821.59 193.48 821.61 193.68 821.62 193.88 821.63 194.06 821.66 194.25 821.69 194.43 821.72 194.6 821.78 194.74 821.85 194.88 821.92 195 822.03 195.09 822.16 195.18 822.29 195.22 822.46 195.22 822.67 195.22 822.86 195.17 823.05 195.07 823.24 194.97 823.42 194.83 823.59 194.65 823.73 194.47 823.87 194.24 823.99 193.98 824.07 193.71 824.15 193.42 824.2 193.08 824.2 192.74 824.2 192.46 824.17 192.21 824.1 191.96 824.03 191.75 823.94 191.59 823.83 191.42 823.72 191.3 823.59 191.22 823.45 191.14 823.31 191.1 823.15 191.1 822.99 191.1 822.77 191.17 822.57 191.31 822.42 191.45 822.26 191.64 822.14 191.89 822.05 191.76 821.99 191.65 821.91 191.57 821.81 191.49 821.71 191.45 821.57 191.45 821.4 191.45 821.33 191.46 821.27 191.49 821.19 191.52 821.11 191.55 821.05 191.6 820.98 191.65 820.91 191.71 820.85 191.78 820.78 191.85 820.72 191.94 820.66 192.03 820.61 191.8 820.48 191.63 820.32 191.5 820.11 191.37 819.9 191.31 819.66 191.31 819.38 191.31 819.16 191.35 818.96 191.44 818.77 191.53 818.59 191.65 818.43 191.8 818.31 191.95 818.18 192.14 818.08 192.35 818.02 192.56 817.95 192.79 817.92 193.05 817.92ZM194.48 822.81C194.48 822.7 194.45 822.61 194.39 822.54 194.33 822.47 194.24 822.42 194.14 822.38 194.04 822.34 193.91 822.31 193.77 822.3 193.63 822.28 193.48 822.27 193.32 822.26 193.16 822.26 193 822.24 192.84 822.23 192.68 822.22 192.52 822.21 192.37 822.19 192.2 822.27 192.06 822.37 191.96 822.48 191.85 822.6 191.8 822.74 191.8 822.9 191.8 823 191.83 823.1 191.88 823.19 191.93 823.28 192.01 823.36 192.12 823.42 192.23 823.48 192.36 823.54 192.53 823.57 192.69 823.61 192.89 823.63 193.11 823.63 193.33 823.63 193.52 823.61 193.69 823.57 193.86 823.53 194.01 823.48 194.12 823.4 194.24 823.33 194.33 823.24 194.39 823.14 194.45 823.04 194.48 822.93 194.48 822.81ZM193.04 820.33C193.2 820.33 193.34 820.31 193.47 820.26 193.6 820.21 193.7 820.15 193.78 820.07 193.86 819.99 193.93 819.89 193.97 819.78 194.01 819.67 194.03 819.54 194.03 819.41 194.03 819.13 193.95 818.91 193.78 818.74 193.61 818.57 193.36 818.49 193.04 818.49 192.72 818.49 192.47 818.57 192.3 818.74 192.13 818.91 192.05 819.13 192.05 819.41 192.05 819.54 192.07 819.67 192.12 819.78 192.16 819.89 192.23 819.99 192.31 820.07 192.39 820.15 192.5 820.21 192.62 820.26 192.74 820.31 192.89 820.33 193.05 820.33Z" fill="#4D4D4D"/><path d="M197.98 817.93C198.31 817.93 198.61 817.99 198.88 818.1 199.15 818.21 199.38 818.37 199.56 818.57 199.75 818.77 199.89 819.02 199.99 819.31 200.09 819.6 200.14 819.92 200.14 820.28 200.14 820.64 200.09 820.96 199.99 821.25 199.89 821.54 199.74 821.78 199.56 821.99 199.37 822.19 199.14 822.35 198.88 822.46 198.61 822.57 198.31 822.63 197.98 822.63 197.65 822.63 197.34 822.57 197.07 822.46 196.8 822.35 196.57 822.19 196.38 821.99 196.19 821.79 196.05 821.54 195.95 821.25 195.85 820.96 195.8 820.64 195.8 820.28 195.8 819.92 195.85 819.6 195.95 819.31 196.05 819.02 196.2 818.77 196.38 818.57 196.57 818.37 196.8 818.21 197.07 818.1 197.34 817.99 197.64 817.93 197.98 817.93ZM197.98 822C198.43 822 198.77 821.85 198.99 821.55 199.21 821.25 199.32 820.83 199.32 820.29 199.32 819.75 199.21 819.32 198.99 819.02 198.77 818.72 198.43 818.56 197.98 818.56 197.75 818.56 197.55 818.6 197.38 818.68 197.21 818.76 197.07 818.87 196.96 819.02 196.85 819.17 196.76 819.35 196.71 819.56 196.65 819.77 196.63 820.02 196.63 820.29 196.63 820.83 196.74 821.25 196.97 821.55 197.19 821.85 197.53 822 197.99 822Z" fill="#4D4D4D"/><path d="M200.5 818 201.15 818C201.22 818 201.27 818.02 201.31 818.05 201.35 818.08 201.38 818.12 201.4 818.17L202.56 821.1C202.6 821.21 202.63 821.32 202.65 821.42 202.68 821.52 202.7 821.63 202.73 821.73 202.75 821.63 202.78 821.52 202.81 821.42 202.84 821.31 202.87 821.21 202.91 821.1L204.08 818.17C204.08 818.17 204.13 818.08 204.17 818.05 204.21 818.02 204.26 818 204.32 818L204.94 818 203.08 822.56 202.36 822.56 200.5 818Z" fill="#4D4D4D"/><path d="M205.24 822.06C205.24 821.98 205.25 821.91 205.28 821.84 205.31 821.77 205.35 821.71 205.4 821.66 205.45 821.61 205.51 821.57 205.58 821.54 205.65 821.51 205.72 821.5 205.8 821.5 205.88 821.5 205.95 821.51 206.02 821.54 206.09 821.57 206.15 821.61 206.2 821.66 206.25 821.71 206.29 821.77 206.32 821.84 206.35 821.91 206.36 821.98 206.36 822.06 206.36 822.14 206.35 822.22 206.32 822.28 206.29 822.35 206.25 822.41 206.2 822.46 206.15 822.51 206.09 822.55 206.02 822.58 205.95 822.61 205.88 822.62 205.8 822.62 205.72 822.62 205.65 822.61 205.58 822.58 205.51 822.55 205.45 822.51 205.4 822.46 205.35 822.41 205.31 822.35 205.28 822.28 205.25 822.21 205.24 822.14 205.24 822.06Z" fill="#4D4D4D"/><path d="M207.5 822.56 207.5 815.93 208.31 815.93 208.31 818.66C208.5 818.44 208.71 818.26 208.96 818.12 209.21 817.98 209.48 817.92 209.8 817.92 210.07 817.92 210.31 817.97 210.52 818.07 210.73 818.17 210.92 818.32 211.07 818.51 211.22 818.7 211.33 818.94 211.41 819.21 211.49 819.49 211.53 819.8 211.53 820.14 211.53 820.51 211.49 820.85 211.4 821.15 211.31 821.45 211.18 821.71 211.01 821.93 210.84 822.14 210.63 822.31 210.39 822.43 210.15 822.55 209.87 822.61 209.57 822.61 209.27 822.61 209.02 822.55 208.81 822.44 208.6 822.33 208.43 822.17 208.27 821.96L208.23 822.37C208.21 822.48 208.14 822.54 208.02 822.54L207.5 822.54ZM209.52 818.57C209.26 818.57 209.03 818.63 208.84 818.75 208.65 818.87 208.47 819.04 208.3 819.26L208.3 821.47C208.45 821.67 208.61 821.81 208.78 821.89 208.95 821.97 209.15 822.01 209.36 822.01 209.79 822.01 210.12 821.86 210.35 821.55 210.58 821.25 210.69 820.8 210.69 820.2 210.69 819.64 210.59 819.23 210.39 818.97 210.19 818.71 209.9 818.58 209.52 818.58Z" fill="#4D4D4D"/><path d="M212.54 822.56 212.54 818 213 818C213.09 818 213.15 818.02 213.18 818.05 213.21 818.08 213.24 818.14 213.25 818.22L213.3 818.91C213.44 818.6 213.62 818.35 213.83 818.18 214.04 818 214.3 817.92 214.6 817.92 214.7 817.92 214.79 817.93 214.88 817.95 214.97 817.97 215.05 818 215.12 818.05L215.06 818.65C215.04 818.72 215 818.76 214.92 818.76 214.88 818.76 214.82 818.76 214.74 818.73 214.66 818.71 214.57 818.7 214.47 818.7 214.33 818.7 214.2 818.72 214.08 818.76 213.97 818.8 213.87 818.87 213.78 818.95 213.69 819.03 213.61 819.13 213.54 819.25 213.47 819.37 213.41 819.51 213.35 819.66L213.35 822.54 212.54 822.54Z" fill="#4D4D4D"/></g><path d="M125.75 803.87C125.79 804.42 126 804.98 126.27 805.49 126.54 806.01 126.86 806.48 127.12 806.83 127.18 806.91 127.29 807.05 127.4 807.19 127.48 807.29 127.56 807.39 127.61 807.44 127.66 807.5 127.71 807.56 127.77 807.62 127.8 807.66 127.84 807.7 127.88 807.75L127.88 807.75C127.88 807.75 128.27 808.18 128.27 808.18 128.29 808.2 128.32 808.22 128.34 808.25 128.37 808.28 128.39 808.3 128.42 808.33 128.47 808.38 128.52 808.42 128.57 808.47 128.62 808.51 128.67 808.56 128.71 808.6 128.84 808.73 129.04 808.89 129.25 809.05 129.5 809.24 129.76 809.41 129.95 809.52 130.06 809.58 130.17 809.64 130.29 809.69 130.41 809.74 130.53 809.78 130.67 809.82 130.89 809.88 131.14 809.91 131.39 809.9 131.6 809.9 131.8 809.86 131.98 809.79 132.04 809.77 132.09 809.74 132.14 809.71 132.19 809.68 132.24 809.65 132.28 809.62 132.38 809.55 132.46 809.47 132.54 809.4 132.62 809.32 132.69 809.23 132.75 809.12 132.81 809.02 132.87 808.9 132.92 808.76 132.96 808.65 132.99 808.53 133 808.41 133 808.32 133 808.27 133 808.24 133 808.24 132.99 808.22 132.97 808.2 132.92 808.15 132.79 808.08 132.64 808.01 132.38 807.88 132.08 807.75 131.94 807.69L131.87 807.66C131.87 807.66 131.77 807.62 131.72 807.6 131.67 807.58 131.67 807.58 131.65 807.57 131.61 807.55 131.57 807.53 131.53 807.52 131.46 807.49 131.39 807.47 131.33 807.45 131.27 807.43 131.21 807.41 131.13 807.39 131.1 807.39 131.06 807.41 131.03 807.44 130.95 807.52 130.88 807.63 130.82 807.72 130.78 807.79 130.73 807.86 130.68 807.93 130.61 808.02 130.52 808.1 130.4 808.14L130.4 808.14C130.4 808.14 130.4 808.14 130.4 808.14 130.28 808.19 130.15 808.17 130.03 808.14 129.9 808.1 129.77 808.02 129.71 807.98 129.42 807.78 129.19 807.6 128.96 807.41 128.73 807.22 128.52 807.01 128.29 806.73 128.12 806.53 127.96 806.3 127.81 806.06 127.65 805.79 127.51 805.51 127.39 805.24 127.37 805.19 127.35 805.15 127.34 805.12 127.33 805.08 127.31 805.03 127.3 804.97L127.3 804.95C127.22 804.61 127.19 804.45 127.55 804.26 127.66 804.2 127.76 804.16 127.86 804.12 128 804.06 128.12 804.02 128.21 803.92 128.21 803.92 128.21 803.86 128.2 803.79 128.2 803.76 128.19 803.73 128.19 803.71 128.15 803.49 128.11 803.26 128.06 803.02 128.01 802.78 127.96 802.56 127.9 802.33 127.87 802.21 127.83 802.1 127.77 802.01 127.73 801.95 127.69 801.91 127.63 801.9 127.51 801.88 127.38 801.88 127.24 801.9 127.08 801.92 126.92 801.96 126.79 802 126.66 802.05 126.56 802.1 126.46 802.16 126.37 802.22 126.29 802.29 126.21 802.37 126.05 802.54 125.91 802.77 125.82 803.04 125.74 803.28 125.7 803.55 125.72 803.84L125.72 803.84ZM125.75 805.76C125.46 805.19 125.22 804.55 125.17 803.92 125.14 803.55 125.2 803.2 125.3 802.89 125.42 802.53 125.61 802.23 125.81 802.01 125.92 801.9 126.03 801.8 126.16 801.71 126.29 801.62 126.44 801.55 126.61 801.49 126.78 801.43 126.98 801.38 127.2 801.36 127.38 801.34 127.57 801.34 127.75 801.37 127.98 801.41 128.15 801.55 128.27 801.72 128.37 801.87 128.43 802.05 128.48 802.22 128.54 802.46 128.59 802.69 128.64 802.93 128.69 803.16 128.74 803.4 128.78 803.65 128.78 803.68 128.78 803.7 128.79 803.72 128.83 803.95 128.86 804.13 128.66 804.35 128.48 804.54 128.3 804.61 128.1 804.69 128.02 804.72 127.93 804.76 127.85 804.8 127.83 804.81 127.88 804.8 127.89 804.85L127.89 804.87C127.89 804.87 127.91 804.92 127.92 804.95 127.93 804.98 127.94 805.01 127.95 805.03 128.06 805.28 128.19 805.54 128.33 805.78 128.46 805.99 128.6 806.2 128.75 806.38 128.96 806.63 129.15 806.82 129.35 806.99 129.55 807.17 129.78 807.33 130.05 807.52 130.08 807.54 130.15 807.58 130.21 807.6 130.21 807.6 130.21 807.6 130.21 807.6L130.21 807.6C130.21 807.6 130.22 807.59 130.23 807.57 130.26 807.53 130.29 807.48 130.32 807.43 130.39 807.31 130.49 807.15 130.63 807.02 130.81 806.85 131.03 806.75 131.3 806.83 131.37 806.85 131.44 806.87 131.52 806.9 131.6 806.93 131.67 806.95 131.74 806.98 131.81 807 131.85 807.02 131.9 807.05L131.96 807.08C131.96 807.08 132.04 807.11 132.08 807.13 132.09 807.13 132.11 807.13 132.15 807.16 132.3 807.22 132.63 807.36 132.9 807.5 133.09 807.6 133.27 807.7 133.36 807.78 133.47 807.88 133.53 807.97 133.56 808.1 133.59 808.21 133.59 808.32 133.58 808.46 133.57 808.63 133.53 808.8 133.47 808.96 133.41 809.14 133.33 809.3 133.24 809.44 133.15 809.58 133.06 809.7 132.96 809.81 132.85 809.92 132.74 810.02 132.62 810.11 132.56 810.15 132.49 810.2 132.41 810.24 132.34 810.28 132.26 810.31 132.19 810.34 131.95 810.43 131.68 810.48 131.4 810.48 131.09 810.48 130.78 810.45 130.52 810.38 130.35 810.34 130.2 810.28 130.05 810.22 129.91 810.16 129.78 810.09 129.64 810.01 129.43 809.89 129.15 809.7 128.89 809.51 128.66 809.34 128.44 809.16 128.28 809.01 128.24 808.97 128.2 808.93 128.16 808.9 128.1 808.84 128.04 808.79 127.98 808.73 127.95 808.7 127.93 808.68 127.91 808.66 127.89 808.64 127.87 808.62 127.85 808.6 127.85 808.6 127.84 808.59 127.83 808.58L127.43 808.15C127.43 808.15 127.43 808.15 127.42 808.14 127.39 808.1 127.34 808.05 127.3 808 127.25 807.94 127.21 807.89 127.16 807.84 127.1 807.78 127.02 807.67 126.93 807.56 126.82 807.42 126.71 807.27 126.64 807.19 126.37 806.82 126.03 806.33 125.74 805.77L125.74 805.77ZM130.21 807.61C130.21 807.61 130.21 807.61 130.21 807.61L130.21 807.61C130.21 807.61 130.19 807.62 130.21 807.61L130.21 807.61Z" fill="#4D4D4D"/><path d="M128.44 814.41C127.36 814.61 126.46 815.14 125.71 815.94 125.13 816.56 124.73 817.3 124.53 818.12 124.35 818.9 124.36 819.71 124.55 820.48 124.81 821.5 125.37 822.44 126.18 823.12 127.07 823.87 128.17 824.25 129.33 824.27 131.99 824.31 134.19 822.19 134.33 819.55 134.38 818.57 134.15 817.62 133.65 816.78 133.18 815.99 132.5 815.34 131.69 814.9 130.67 814.36 129.56 814.2 128.43 814.41L128.43 814.41ZM125.42 817.35C125.45 817.15 125.78 816.72 125.91 816.55 126.38 815.93 127.43 815.16 128.21 815.03 128.24 815.03 128.27 815.03 128.29 815.06 128.31 815.08 128.32 815.11 128.31 815.14 128.29 815.23 128.23 815.35 128.19 815.43 128.16 815.5 128.12 815.58 128.09 815.65 127.99 815.92 127.9 816.19 127.84 816.47 127.8 816.67 127.77 816.87 127.73 817.07 127.71 817.18 127.69 817.28 127.65 817.38 127.64 817.42 127.6 817.45 127.56 817.45L125.5 817.45C125.5 817.45 125.45 817.44 125.43 817.42 125.41 817.4 125.41 817.37 125.41 817.35L125.41 817.35ZM133.25 817.45 131.17 817.45C131.17 817.45 131.09 817.41 131.08 817.37 131 816.97 130.94 816.57 130.83 816.18 130.79 816.03 130.73 815.87 130.67 815.73 130.62 815.6 130.57 815.47 130.52 815.34 130.5 815.3 130.48 815.25 130.47 815.21 130.47 815.19 130.45 815.16 130.44 815.14 130.44 815.11 130.44 815.08 130.47 815.06 130.49 815.04 130.52 815.03 130.55 815.04 131.18 815.21 131.71 815.51 132.22 815.92 132.46 816.11 132.65 816.33 132.84 816.57 132.98 816.74 133.27 817.15 133.33 817.36 133.33 817.39 133.33 817.42 133.32 817.44 133.3 817.46 133.28 817.48 133.25 817.48L133.25 817.48ZM128.23 817.35C128.28 816.85 128.74 814.88 129.37 814.87 129.76 814.87 130.07 815.63 130.18 815.94 130.26 816.16 130.33 816.4 130.39 816.63 130.43 816.77 130.46 816.9 130.48 817.04 130.5 817.14 130.52 817.26 130.51 817.36 130.51 817.41 130.47 817.45 130.42 817.45L128.31 817.45C128.31 817.45 128.26 817.43 128.24 817.42 128.22 817.4 128.21 817.38 128.22 817.35L128.22 817.35ZM133.64 818.07C133.67 818.25 133.71 818.42 133.74 818.6 133.78 818.84 133.8 819.07 133.8 819.32 133.8 819.65 133.75 820.24 133.61 820.54 133.6 820.57 133.56 820.59 133.53 820.59L131.27 820.59C131.27 820.59 131.19 820.56 131.18 820.52 131.16 820.44 131.17 820.33 131.17 820.25 131.17 820.12 131.17 820 131.19 819.87 131.2 819.68 131.22 819.48 131.22 819.3 131.22 818.9 131.19 818.5 131.17 818.1 131.17 818.07 131.17 818.05 131.2 818.03 131.22 818.01 131.24 818 131.27 818L133.56 818C133.56 818 133.64 818.04 133.65 818.08L133.65 818.08ZM125.15 820.54C124.89 820.08 124.9 818.51 125.15 818.04 125.17 818.01 125.2 817.99 125.23 817.99L127.5 817.99C127.5 817.99 127.55 817.99 127.56 818.02 127.58 818.04 127.59 818.06 127.59 818.09 127.59 818.5 127.55 818.91 127.55 819.32 127.55 819.5 127.57 819.69 127.58 819.87 127.58 819.99 127.59 820.11 127.6 820.24 127.6 820.33 127.6 820.43 127.6 820.52 127.6 820.56 127.56 820.6 127.51 820.6L125.25 820.6C125.25 820.6 125.19 820.58 125.17 820.55L125.17 820.55ZM130.53 820.58C130.38 820.6 130.21 820.59 130.06 820.6 129.83 820.6 129.61 820.6 129.38 820.6 129.05 820.6 128.73 820.6 128.4 820.6 128.33 820.6 128.26 820.62 128.2 820.58 128.15 820.55 128.13 820.51 128.12 820.46 128.11 820.4 128.1 820.34 128.1 820.28 128.1 820.19 128.09 820.1 128.09 820 128.09 819.76 128.08 819.52 128.09 819.28 128.09 819.04 128.09 818.8 128.11 818.56 128.11 818.47 128.11 818.37 128.13 818.28 128.13 818.22 128.14 818.15 128.16 818.1 128.16 818.07 128.19 818.04 128.23 818.03 128.27 818.03 128.33 818.02 128.38 818.02 128.47 818.02 128.55 818.02 128.64 818.02 128.89 818.02 129.13 818.02 129.38 818.02 129.64 818.02 129.9 818.02 130.16 818.02 130.25 818.02 130.33 818.02 130.42 818.02 130.45 818.02 130.52 818.02 130.55 818.02 130.55 818.02 130.57 818.02 130.58 818.03 130.69 818.11 130.66 818.11 130.67 818.23 130.67 818.23 130.67 818.23 130.67 818.23L130.71 819.3C130.71 819.3 130.71 819.3 130.71 819.3 130.71 819.49 130.71 819.69 130.71 819.88 130.71 820 130.71 820.12 130.69 820.23 130.69 820.32 130.67 820.42 130.65 820.52 130.65 820.56 130.61 820.59 130.57 820.59L130.57 820.59ZM130.45 823.44C130.47 823.34 130.53 823.23 130.57 823.14 130.6 823.07 130.64 822.99 130.67 822.92 130.77 822.64 130.85 822.37 130.92 822.08 130.98 821.79 131.03 821.49 131.1 821.2 131.1 821.16 131.15 821.13 131.19 821.13L133.26 821.13C133.26 821.13 133.31 821.15 133.33 821.17 133.35 821.19 133.35 821.22 133.35 821.25 133.31 821.44 133 821.87 132.87 822.03 132.32 822.72 131.45 823.37 130.57 823.55 130.54 823.55 130.51 823.55 130.49 823.52 130.47 823.5 130.46 823.47 130.47 823.44L130.47 823.44ZM127.92 822.39C127.97 822.57 128.03 822.74 128.1 822.91 128.15 823.03 128.2 823.14 128.25 823.25 128.27 823.31 128.3 823.37 128.32 823.43 128.32 823.46 128.32 823.49 128.3 823.52 128.28 823.54 128.25 823.56 128.22 823.55 127.71 823.47 126.93 823.01 126.54 822.68 126.23 822.41 125.48 821.63 125.43 821.23 125.43 821.2 125.43 821.18 125.45 821.16 125.47 821.14 125.49 821.13 125.52 821.13L127.58 821.13C127.58 821.13 127.66 821.16 127.67 821.2L127.93 822.39 127.93 822.39ZM130.19 822.65C130.08 822.96 129.79 823.74 129.35 823.7 128.92 823.66 128.64 822.86 128.53 822.52 128.44 822.25 128.37 821.97 128.31 821.69 128.29 821.59 128.27 821.49 128.25 821.39 128.25 821.34 128.23 821.27 128.23 821.21 128.23 821.16 128.27 821.12 128.32 821.12L130.42 821.12C130.42 821.12 130.51 821.16 130.51 821.2 130.51 821.3 130.5 821.43 130.48 821.52 130.45 821.66 130.42 821.8 130.38 821.94 130.32 822.17 130.25 822.4 130.18 822.63L130.18 822.63Z" fill="#4D4D4D" fill-rule="evenodd"/></g><rect x="23.09" y="789.28" rx="0.47" ry="0.47" width="549.1" height="0.95" fill="#4D4D4D"/></svg>